<svg version="1.1" viewBox="0.0 0.0 600.0 371.0" fill="none" stroke="none" stroke-linecap="square" stroke-miterlimit="10" width="600" height="371" xmlns:xlink="http://www.w3.org/1999/xlink" xmlns="http://www.w3.org/2000/svg"><path fill="#ffffff" d="M0 0L600.0 0L600.0 371.0L0 371.0L0 0Z" fill-rule="nonzero"/><path stroke="#333333" stroke-width="1.0" stroke-linecap="butt" d="M85.5 298.5L547.5 298.5" fill-rule="nonzero"/><path stroke="#cccccc" stroke-width="1.0" stroke-linecap="butt" d="M85.5 228.5L547.5 228.5" fill-rule="nonzero"/><path stroke="#cccccc" stroke-width="1.0" stroke-linecap="butt" d="M85.5 159.5L547.5 159.5" fill-rule="nonzero"/><path stroke="#cccccc" stroke-width="1.0" stroke-linecap="butt" d="M85.5 89.5L547.5 89.5" fill-rule="nonzero"/><clipPath id="id_0"><path d="M85.55 89.78333L547.45 89.78333L547.45 298.45L85.55 298.45L85.55 89.78333Z" clip-rule="nonzero"/></clipPath><path stroke="#4285f4" stroke-width="2.0" stroke-linecap="butt" clip-path="url(#id_0)" d="M118.542854 186.85173C118.542854 186.85173 162.53334 184.42285 184.52856 180.3469C206.5238 176.27094 228.51904 171.8153 250.51428 162.396C272.50952 152.97668 294.50476 131.79935 316.5 123.831055C338.49524 115.86277 360.49048 116.869934 382.48572 114.58629C404.48096 112.30264 426.4762 110.487335 448.47144 110.129166C470.46667 109.771 514.45715 112.4373 514.45715 112.4373" fill-rule="nonzero"/><path stroke="#ea4335" stroke-width="2.0" stroke-linecap="butt" stroke-dasharray="8.0,6.0" clip-path="url(#id_0)" d="M118.542854 295.67538C118.542854 295.67538 162.53334 288.747 184.52856 284.58997C206.5238 280.43292 228.51904 277.6616 250.51428 270.7332C272.50952 263.8048 294.50476 252.2575 316.5 243.01965C338.49524 233.78181 360.49048 226.85336 382.48572 215.30612C404.48096 203.75887 426.4762 189.44048 448.47144 173.73613C470.46667 158.03178 514.45715 121.08007 514.45715 121.08007" fill-rule="nonzero"/><path fill="#000000" fill-opacity="0.0" clip-path="url(#id_0)" d="M121.542854 186.85173C121.542854 188.50858 120.199715 189.85173 118.542854 189.85173C116.886 189.85173 115.542854 188.50858 115.542854 186.85173C115.542854 185.19487 116.886 183.85173 118.542854 183.85173C120.199715 183.85173 121.542854 185.19487 121.542854 186.85173Z" fill-rule="nonzero"/><path fill="#000000" fill-opacity="0.0" clip-path="url(#id_0)" d="M187.52856 180.3469C187.52856 182.00375 186.18542 183.3469 184.52856 183.3469C182.87172 183.3469 181.52856 182.00375 181.52856 180.3469C181.52856 178.69003 182.87172 177.3469 184.52856 177.3469C186.18542 177.3469 187.52856 178.69003 187.52856 180.3469Z" fill-rule="nonzero"/><path fill="#000000" fill-opacity="0.0" clip-path="url(#id_0)" d="M253.51428 162.396C253.51428 164.05286 252.17114 165.396 250.51428 165.396C248.85744 165.396 247.51428 164.05286 247.51428 162.396C247.51428 160.73914 248.85744 159.396 250.51428 159.396C252.17114 159.396 253.51428 160.73914 253.51428 162.396Z" fill-rule="nonzero"/><path fill="#000000" fill-opacity="0.0" clip-path="url(#id_0)" d="M319.5 123.831055C319.5 125.48791 318.15686 126.831055 316.5 126.831055C314.84314 126.831055 313.5 125.48791 313.5 123.831055C313.5 122.1742 314.84314 120.831055 316.5 120.831055C318.15686 120.831055 319.5 122.1742 319.5 123.831055Z" fill-rule="nonzero"/><path fill="#000000" fill-opacity="0.0" clip-path="url(#id_0)" d="M385.48572 114.58629C385.48572 116.24314 384.14258 117.58629 382.48572 117.58629C380.82886 117.58629 379.48572 116.24314 379.48572 114.58629C379.48572 112.929436 380.82886 111.58629 382.48572 111.58629C384.14258 111.58629 385.48572 112.929436 385.48572 114.58629Z" fill-rule="nonzero"/><path fill="#000000" fill-opacity="0.0" clip-path="url(#id_0)" d="M451.47144 110.129166C451.47144 111.786026 450.1283 113.129166 448.47144 113.129166C446.81458 113.129166 445.47144 111.786026 445.47144 110.129166C445.47144 108.47231 446.81458 107.129166 448.47144 107.129166C450.1283 107.129166 451.47144 108.47231 451.47144 110.129166Z" fill-rule="nonzero"/><path fill="#000000" fill-opacity="0.0" clip-path="url(#id_0)" d="M517.45715 112.4373C517.45715 114.094154 516.114 115.4373 514.45715 115.4373C512.8003 115.4373 511.45715 114.094154 511.45715 112.4373C511.45715 110.78045 512.8003 109.4373 514.45715 109.4373C516.114 109.4373 517.45715 110.78045 517.45715 112.4373Z" fill-rule="nonzero"/><path fill="#000000" fill-opacity="0.0" clip-path="url(#id_0)" d="M121.542854 295.67538C121.542854 297.33224 120.199715 298.67538 118.542854 298.67538C116.886 298.67538 115.542854 297.33224 115.542854 295.67538C115.542854 294.01852 116.886 292.67538 118.542854 292.67538C120.199715 292.67538 121.542854 294.01852 121.542854 295.67538Z" fill-rule="nonzero"/><path fill="#000000" fill-opacity="0.0" clip-path="url(#id_0)" d="M187.52856 284.58997C187.52856 286.24683 186.18542 287.58997 184.52856 287.58997C182.87172 287.58997 181.52856 286.24683 181.52856 284.58997C181.52856 282.9331 182.87172 281.58997 184.52856 281.58997C186.18542 281.58997 187.52856 282.9331 187.52856 284.58997Z" fill-rule="nonzero"/><path fill="#000000" fill-opacity="0.0" clip-path="url(#id_0)" d="M253.51428 270.7332C253.51428 272.39005 252.17114 273.7332 250.51428 273.7332C248.85744 273.7332 247.51428 272.39005 247.51428 270.7332C247.51428 269.07635 248.85744 267.7332 250.51428 267.7332C252.17114 267.7332 253.51428 269.07635 253.51428 270.7332Z" fill-rule="nonzero"/><path fill="#000000" fill-opacity="0.0" clip-path="url(#id_0)" d="M319.5 243.01965C319.5 244.67651 318.15686 246.01965 316.5 246.01965C314.84314 246.01965 313.5 244.67651 313.5 243.01965C313.5 241.36281 314.84314 240.01965 316.5 240.01965C318.15686 240.01965 319.5 241.36281 319.5 243.01965Z" fill-rule="nonzero"/><path fill="#000000" fill-opacity="0.0" clip-path="url(#id_0)" d="M385.48572 215.30612C385.48572 216.96297 384.14258 218.30612 382.48572 218.30612C380.82886 218.30612 379.48572 216.96297 379.48572 215.30612C379.48572 213.64926 380.82886 212.30612 382.48572 212.30612C384.14258 212.30612 385.48572 213.64926 385.48572 215.30612Z" fill-rule="nonzero"/><path fill="#000000" fill-opacity="0.0" clip-path="url(#id_0)" d="M451.47144 173.73613C451.47144 175.39297 450.1283 176.73613 448.47144 176.73613C446.81458 176.73613 445.47144 175.39297 445.47144 173.73613C445.47144 172.07927 446.81458 170.73613 448.47144 170.73613C450.1283 170.73613 451.47144 172.07927 451.47144 173.73613Z" fill-rule="nonzero"/><path fill="#000000" fill-opacity="0.0" clip-path="url(#id_0)" d="M517.45715 121.08007C517.45715 122.73693 516.114 124.08007 514.45715 124.08007C512.8003 124.08007 511.45715 122.73693 511.45715 121.08007C511.45715 119.42322 512.8003 118.08007 514.45715 118.08007C516.114 118.08007 517.45715 119.42322 517.45715 121.08007Z" fill-rule="nonzero"/><path fill="#000000" d="M270.9375 340.91876L273.73438 347.8719L276.51562 340.91876L277.98438 340.91876L277.98438 349.45L276.85938 349.45L276.85938 346.1219L276.96875 342.54376L274.15625 349.45L273.29688 349.45L270.5 342.5594L270.60938 346.1219L270.60938 349.45L269.48438 349.45L269.48438 340.91876L270.9375 340.91876ZM281.95312 349.575Q280.65625 349.575 279.84375 348.73126Q279.04688 347.8719 279.04688 346.45L279.04688 346.2625Q279.04688 345.3094 279.40625 344.575Q279.76562 343.825 280.40625 343.41876Q281.0625 342.9969 281.8125 342.9969Q283.04688 342.9969 283.73438 343.8094Q284.42188 344.6219 284.42188 346.1375L284.42188 346.59064L280.125 346.59064Q280.15625 347.52814 280.67188 348.10626Q281.20312 348.6844 282.01562 348.6844Q282.57812 348.6844 282.96875 348.45Q283.375 348.21564 283.6875 347.825L284.34375 348.34064Q283.54688 349.575 281.95312 349.575ZM281.8125 343.8875Q281.15625 343.8875 280.70312 344.3719Q280.26562 344.84064 280.17188 345.7L283.34375 345.7L283.34375 345.6219Q283.29688 344.79376 282.89062 344.34064Q282.5 343.8875 281.8125 343.8875ZM289.01562 347.7625Q289.01562 347.325 288.67188 347.09064Q288.34375 346.84064 287.51562 346.66876Q286.70312 346.4969 286.21875 346.2469Q285.73438 345.9969 285.5 345.66876Q285.28125 345.325 285.28125 344.85626Q285.28125 344.075 285.9375 343.54376Q286.59375 342.9969 287.625 342.9969Q288.70312 342.9969 289.35938 343.5594Q290.03125 344.10626 290.03125 344.96564L288.95312 344.96564Q288.95312 344.52814 288.5625 344.21564Q288.1875 343.8875 287.625 343.8875Q287.03125 343.8875 286.6875 344.15314Q286.35938 344.40314 286.35938 344.8094Q286.35938 345.2 286.67188 345.40314Q286.98438 345.60626 287.79688 345.79376Q288.60938 345.96564 289.10938 346.21564Q289.60938 346.46564 289.84375 346.825Q290.09375 347.1844 290.09375 347.6844Q290.09375 348.54376 289.40625 349.0594Q288.73438 349.575 287.65625 349.575Q286.89062 349.575 286.29688 349.3094Q285.71875 349.02814 285.39062 348.54376Q285.0625 348.0594 285.0625 347.4969L286.14062 347.4969Q286.17188 348.04376 286.57812 348.3719Q286.98438 348.6844 287.65625 348.6844Q288.26562 348.6844 288.64062 348.4344Q289.01562 348.1844 289.01562 347.7625ZM295.01562 347.7625Q295.01562 347.325 294.67188 347.09064Q294.34375 346.84064 293.51562 346.66876Q292.70312 346.4969 292.21875 346.2469Q291.73438 345.9969 291.5 345.66876Q291.28125 345.325 291.28125 344.85626Q291.28125 344.075 291.9375 343.54376Q292.59375 342.9969 293.625 342.9969Q294.70312 342.9969 295.35938 343.5594Q296.03125 344.10626 296.03125 344.96564L294.95312 344.96564Q294.95312 344.52814 294.5625 344.21564Q294.1875 343.8875 293.625 343.8875Q293.03125 343.8875 292.6875 344.15314Q292.35938 344.40314 292.35938 344.8094Q292.35938 345.2 292.67188 345.40314Q292.98438 345.60626 293.79688 345.79376Q294.60938 345.96564 295.10938 346.21564Q295.60938 346.46564 295.84375 346.825Q296.09375 347.1844 296.09375 347.6844Q296.09375 348.54376 295.40625 349.0594Q294.73438 349.575 293.65625 349.575Q292.89062 349.575 292.29688 349.3094Q291.71875 349.02814 291.39062 348.54376Q291.0625 348.0594 291.0625 347.4969L292.14062 347.4969Q292.17188 348.04376 292.57812 348.3719Q292.98438 348.6844 293.65625 348.6844Q294.26562 348.6844 294.64062 348.4344Q295.01562 348.1844 295.01562 347.7625ZM301.23438 349.45Q301.14062 349.2625 301.07812 348.77814Q300.32812 349.575 299.28125 349.575Q298.34375 349.575 297.73438 349.04376Q297.14062 348.5125 297.14062 347.6844Q297.14062 346.7 297.89062 346.15314Q298.64062 345.60626 300.01562 345.60626L301.0625 345.60626L301.0625 345.10626Q301.0625 344.54376 300.71875 344.21564Q300.39062 343.8719 299.71875 343.8719Q299.14062 343.8719 298.75 344.16876Q298.35938 344.45 298.35938 344.8719L297.26562 344.8719Q297.26562 344.3875 297.59375 343.95Q297.9375 343.5125 298.51562 343.2625Q299.09375 342.9969 299.78125 342.9969Q300.89062 342.9969 301.5 343.54376Q302.125 344.09064 302.15625 345.04376L302.15625 347.96564Q302.15625 348.84064 302.375 349.35626L302.375 349.45L301.23438 349.45ZM299.4375 348.6219Q299.95312 348.6219 300.40625 348.35626Q300.85938 348.09064 301.0625 347.66876L301.0625 346.3719L300.21875 346.3719Q298.21875 346.3719 298.21875 347.54376Q298.21875 348.04376 298.5625 348.34064Q298.90625 348.6219 299.4375 348.6219ZM304.0625 346.23126Q304.0625 344.7469 304.75 343.8719Q305.4375 342.9969 306.5625 342.9969Q307.71875 342.9969 308.375 343.8094L308.42188 343.10626L309.42188 343.10626L309.42188 349.29376Q309.42188 350.52814 308.6875 351.23126Q307.95312 351.95 306.73438 351.95Q306.04688 351.95 305.39062 351.65314Q304.73438 351.35626 304.39062 350.85626L304.95312 350.2Q305.64062 351.0594 306.65625 351.0594Q307.4375 351.0594 307.875 350.60626Q308.32812 350.16876 308.32812 349.35626L308.32812 348.8094Q307.67188 349.575 306.54688 349.575Q305.4375 349.575 304.75 348.6844Q304.0625 347.77814 304.0625 346.23126ZM305.15625 346.35626Q305.15625 347.41876 305.59375 348.04376Q306.03125 348.65314 306.82812 348.65314Q307.84375 348.65314 308.32812 347.71564L308.32812 344.825Q307.82812 343.91876 306.82812 343.91876Q306.04688 343.91876 305.59375 344.52814Q305.15625 345.1375 305.15625 346.35626ZM313.95312 349.575Q312.65625 349.575 311.84375 348.73126Q311.04688 347.8719 311.04688 346.45L311.04688 346.2625Q311.04688 345.3094 311.40625 344.575Q311.76562 343.825 312.40625 343.41876Q313.0625 342.9969 313.8125 342.9969Q315.04688 342.9969 315.73438 343.8094Q316.42188 344.6219 316.42188 346.1375L316.42188 346.59064L312.125 346.59064Q312.15625 347.52814 312.67188 348.10626Q313.20312 348.6844 314.01562 348.6844Q314.57812 348.6844 314.96875 348.45Q315.375 348.21564 315.6875 347.825L316.34375 348.34064Q315.54688 349.575 313.95312 349.575ZM313.8125 343.8875Q313.15625 343.8875 312.70312 344.3719Q312.26562 344.84064 312.17188 345.7L315.34375 345.7L315.34375 345.6219Q315.29688 344.79376 314.89062 344.34064Q314.5 343.8875 313.8125 343.8875ZM321.01562 347.7625Q321.01562 347.325 320.67188 347.09064Q320.34375 346.84064 319.51562 346.66876Q318.70312 346.4969 318.21875 346.2469Q317.73438 345.9969 317.5 345.66876Q317.28125 345.325 317.28125 344.85626Q317.28125 344.075 317.9375 343.54376Q318.59375 342.9969 319.625 342.9969Q320.70312 342.9969 321.35938 343.5594Q322.03125 344.10626 322.03125 344.96564L320.95312 344.96564Q320.95312 344.52814 320.5625 344.21564Q320.1875 343.8875 319.625 343.8875Q319.03125 343.8875 318.6875 344.15314Q318.35938 344.40314 318.35938 344.8094Q318.35938 345.2 318.67188 345.40314Q318.98438 345.60626 319.79688 345.79376Q320.60938 345.96564 321.10938 346.21564Q321.60938 346.46564 321.84375 346.825Q322.09375 347.1844 322.09375 347.6844Q322.09375 348.54376 321.40625 349.0594Q320.73438 349.575 319.65625 349.575Q318.89062 349.575 318.29688 349.3094Q317.71875 349.02814 317.39062 348.54376Q317.0625 348.0594 317.0625 347.4969L318.14062 347.4969Q318.17188 348.04376 318.57812 348.3719Q318.98438 348.6844 319.65625 348.6844Q320.26562 348.6844 320.64062 348.4344Q321.01562 348.1844 321.01562 347.7625ZM331.67188 346.35626Q331.67188 347.79376 331.01562 348.6844Q330.35938 349.575 329.21875 349.575Q328.0625 349.575 327.40625 348.84064L327.40625 351.8875L326.32812 351.8875L326.32812 343.10626L327.3125 343.10626L327.35938 343.8094Q328.03125 342.9969 329.20312 342.9969Q330.34375 342.9969 331.0 343.85626Q331.67188 344.71564 331.67188 346.2469L331.67188 346.35626ZM330.59375 346.23126Q330.59375 345.15314 330.125 344.54376Q329.67188 343.91876 328.875 343.91876Q327.89062 343.91876 327.40625 344.77814L327.40625 347.8094Q327.89062 348.6844 328.89062 348.6844Q329.67188 348.6844 330.125 348.075Q330.59375 347.45 330.59375 346.23126ZM335.95312 349.575Q334.65625 349.575 333.84375 348.73126Q333.04688 347.8719 333.04688 346.45L333.04688 346.2625Q333.04688 345.3094 333.40625 344.575Q333.76562 343.825 334.40625 343.41876Q335.0625 342.9969 335.8125 342.9969Q337.04688 342.9969 337.73438 343.8094Q338.42188 344.6219 338.42188 346.1375L338.42188 346.59064L334.125 346.59064Q334.15625 347.52814 334.67188 348.10626Q335.20312 348.6844 336.01562 348.6844Q336.57812 348.6844 336.96875 348.45Q337.375 348.21564 337.6875 347.825L338.34375 348.34064Q337.54688 349.575 335.95312 349.575ZM335.8125 343.8875Q335.15625 343.8875 334.70312 344.3719Q334.26562 344.84064 334.17188 345.7L337.34375 345.7L337.34375 345.6219Q337.29688 344.79376 336.89062 344.34064Q336.5 343.8875 335.8125 343.8875ZM342.39062 344.075Q342.14062 344.04376 341.85938 344.04376Q340.78125 344.04376 340.40625 344.95L340.40625 349.45L339.32812 349.45L339.32812 343.10626L340.375 343.10626L340.39062 343.84064Q340.92188 342.9969 341.90625 342.9969Q342.21875 342.9969 342.39062 343.075L342.39062 344.075ZM348.85938 348.6844Q349.4375 348.6844 349.875 348.34064Q350.3125 347.98126 350.35938 347.45L351.39062 347.45Q351.35938 347.9969 351.0 348.4969Q350.65625 348.98126 350.07812 349.27814Q349.51562 349.575 348.85938 349.575Q347.5625 349.575 346.79688 348.71564Q346.04688 347.84064 346.04688 346.34064L346.04688 346.15314Q346.04688 345.23126 346.375 344.5125Q346.71875 343.79376 347.34375 343.40314Q347.98438 342.9969 348.85938 342.9969Q349.92188 342.9969 350.625 343.6375Q351.34375 344.2625 351.39062 345.29376L350.35938 345.29376Q350.3125 344.66876 349.89062 344.27814Q349.46875 343.8875 348.85938 343.8875Q348.03125 343.8875 347.57812 344.48126Q347.125 345.075 347.125 346.2L347.125 346.40314Q347.125 347.4969 347.57812 348.09064Q348.03125 348.6844 348.85938 348.6844ZM356.23438 349.45Q356.14062 349.2625 356.07812 348.77814Q355.32812 349.575 354.28125 349.575Q353.34375 349.575 352.73438 349.04376Q352.14062 348.5125 352.14062 347.6844Q352.14062 346.7 352.89062 346.15314Q353.64062 345.60626 355.01562 345.60626L356.0625 345.60626L356.0625 345.10626Q356.0625 344.54376 355.71875 344.21564Q355.39062 343.8719 354.71875 343.8719Q354.14062 343.8719 353.75 344.16876Q353.35938 344.45 353.35938 344.8719L352.26562 344.8719Q352.26562 344.3875 352.59375 343.95Q352.9375 343.5125 353.51562 343.2625Q354.09375 342.9969 354.78125 342.9969Q355.89062 342.9969 356.5 343.54376Q357.125 344.09064 357.15625 345.04376L357.15625 347.96564Q357.15625 348.84064 357.375 349.35626L357.375 349.45L356.23438 349.45ZM354.4375 348.6219Q354.95312 348.6219 355.40625 348.35626Q355.85938 348.09064 356.0625 347.66876L356.0625 346.3719L355.21875 346.3719Q353.21875 346.3719 353.21875 347.54376Q353.21875 348.04376 353.5625 348.34064Q353.90625 348.6219 354.4375 348.6219ZM360.5 349.45L359.42188 349.45L359.42188 340.45L360.5 340.45L360.5 349.45ZM363.5 349.45L362.42188 349.45L362.42188 340.45L363.5 340.45L363.5 349.45Z" fill-rule="nonzero"/><path fill="#000000" d="M22.940638 246.47604L22.940638 249.22604L30.550013 249.22604L30.550013 250.33542L22.940638 250.33542L22.940638 253.08542L22.018763 253.08542L22.018763 246.47604L22.940638 246.47604ZM24.971888 244.46042Q24.096888 243.74167 24.096888 242.58542Q24.096888 240.5698 26.362513 240.55417L30.550013 240.55417L30.550013 241.64792L26.346888 241.64792Q25.675013 241.64792 25.346888 241.96042Q25.018763 242.2573 25.018763 242.91354Q25.018763 243.4448 25.300013 243.85104Q25.581263 244.24167 26.034388 244.46042L30.550013 244.46042L30.550013 245.53854L21.550013 245.53854L21.550013 244.46042L24.971888 244.46042ZM25.175013 235.47604Q25.143763 235.72604 25.143763 236.0073Q25.143763 237.08542 26.050013 237.46042L30.550013 237.46042L30.550013 238.53854L24.206263 238.53854L24.206263 237.49167L24.940638 237.47604Q24.096888 236.9448 24.096888 235.96042Q24.096888 235.64792 24.175013 235.47604L25.175013 235.47604ZM27.315638 234.83542Q26.393763 234.83542 25.643763 234.47604Q24.893763 234.10104 24.503138 233.4448Q24.096888 232.78854 24.096888 231.96042Q24.096888 230.66354 24.987513 229.86667Q25.878138 229.05417 27.378138 229.05417L27.456263 229.05417Q28.378138 229.05417 29.112513 229.41354Q29.846888 229.77292 30.268763 230.42917Q30.675013 231.08542 30.675013 231.9448Q30.675013 233.22604 29.784388 234.03854Q28.878138 234.83542 27.393763 234.83542L27.315638 234.83542ZM27.456263 233.74167Q28.503138 233.74167 29.143763 233.2573Q29.784388 232.7573 29.784388 231.9448Q29.784388 231.11667 29.143763 230.6323Q28.487513 230.14792 27.315638 230.14792Q26.284388 230.14792 25.643763 230.64792Q24.987513 231.1323 24.987513 231.96042Q24.987513 232.7573 25.628138 233.2573Q26.253138 233.74167 27.456263 233.74167ZM29.925013 223.6323Q30.675013 224.2573 30.675013 225.49167Q30.675013 226.5073 30.081263 227.03854Q29.487513 227.5698 28.331263 227.5698L24.206263 227.5698L24.206263 226.49167L28.300013 226.49167Q29.753138 226.49167 29.753138 225.3198Q29.753138 224.0698 28.815638 223.66354L24.206263 223.66354L24.206263 222.5698L30.550013 222.5698L30.550013 223.60104L29.925013 223.6323ZM27.331263 220.80417Q25.846888 220.80417 24.971888 220.11667Q24.096888 219.42917 24.096888 218.30417Q24.096888 217.14792 24.909388 216.49167L24.206263 216.4448L24.206263 215.4448L30.393763 215.4448Q31.628138 215.4448 32.33126 216.17917Q33.05001 216.91354 33.05001 218.1323Q33.05001 218.8198 32.753136 219.47604Q32.45626 220.1323 31.956263 220.47604L31.300013 219.91354Q32.159386 219.22604 32.159386 218.21042Q32.159386 217.42917 31.706263 216.99167Q31.268763 216.53854 30.456263 216.53854L29.909388 216.53854Q30.675013 217.1948 30.675013 218.3198Q30.675013 219.42917 29.784388 220.11667Q28.878138 220.80417 27.331263 220.80417ZM27.456263 219.71042Q28.518763 219.71042 29.143763 219.27292Q29.753138 218.83542 29.753138 218.03854Q29.753138 217.02292 28.815638 216.53854L25.925013 216.53854Q25.018763 217.03854 25.018763 218.03854Q25.018763 218.8198 25.628138 219.27292Q26.237513 219.71042 27.456263 219.71042ZM24.971888 212.46042Q24.096888 211.74167 24.096888 210.58542Q24.096888 208.5698 26.362513 208.55417L30.550013 208.55417L30.550013 209.64792L26.346888 209.64792Q25.675013 209.64792 25.346888 209.96042Q25.018763 210.2573 25.018763 210.91354Q25.018763 211.4448 25.300013 211.85104Q25.581263 212.24167 26.034388 212.46042L30.550013 212.46042L30.550013 213.53854L21.550013 213.53854L21.550013 212.46042L24.971888 212.46042ZM27.456263 201.1948Q28.893763 201.1948 29.784388 201.85104Q30.675013 202.5073 30.675013 203.64792Q30.675013 204.80417 29.940638 205.46042L32.98751 205.46042L32.98751 206.53854L24.206263 206.53854L24.206263 205.55417L24.909388 205.5073Q24.096888 204.83542 24.096888 203.66354Q24.096888 202.52292 24.956263 201.86667Q25.815638 201.1948 27.346888 201.1948L27.456263 201.1948ZM27.331263 202.27292Q26.253138 202.27292 25.643763 202.74167Q25.018763 203.1948 25.018763 203.99167Q25.018763 204.97604 25.878138 205.46042L28.909388 205.46042Q29.784388 204.97604 29.784388 203.97604Q29.784388 203.1948 29.175013 202.74167Q28.550013 202.27292 27.331263 202.27292ZM29.925013 195.6323Q30.675013 196.2573 30.675013 197.49167Q30.675013 198.5073 30.081263 199.03854Q29.487513 199.5698 28.331263 199.5698L24.206263 199.5698L24.206263 198.49167L28.300013 198.49167Q29.753138 198.49167 29.753138 197.3198Q29.753138 196.0698 28.815638 195.66354L24.206263 195.66354L24.206263 194.5698L30.550013 194.5698L30.550013 195.60104L29.925013 195.6323ZM22.675013 191.0698L24.206263 191.0698L24.206263 189.89792L25.050013 189.89792L25.050013 191.0698L28.971888 191.0698Q29.362513 191.0698 29.550013 190.91354Q29.737513 190.7573 29.737513 190.3823Q29.737513 190.1948 29.675013 189.86667L30.550013 189.86667Q30.675013 190.28854 30.675013 190.6948Q30.675013 191.41354 30.237513 191.78854Q29.784388 192.16354 28.971888 192.16354L25.050013 192.16354L25.050013 193.3198L24.206263 193.3198L24.206263 192.16354L22.675013 192.16354L22.675013 191.0698ZM27.081263 185.58542Q25.768763 185.58542 24.550013 185.24167Q23.331263 184.8823 22.331263 184.17917Q21.331263 183.47604 20.925013 182.71042L21.643763 182.49167Q22.300013 183.35104 23.643763 183.89792Q24.987513 184.4448 26.659388 184.49167L27.159388 184.5073Q29.425013 184.5073 31.081263 183.67917Q32.08126 183.17917 32.64376 182.49167L33.30001 182.71042Q32.878136 183.49167 31.846888 184.21042Q29.862513 185.58542 27.081263 185.58542ZM22.018763 179.92917L28.971888 177.1323L22.018763 174.35104L22.018763 172.8823L30.550013 172.8823L30.550013 174.0073L27.221888 174.0073L23.643763 173.89792L30.550013 176.71042L30.550013 177.5698L23.659388 180.36667L27.221888 180.2573L30.550013 180.2573L30.550013 181.3823L22.018763 181.3823L22.018763 179.92917ZM27.456263 166.17917Q28.909388 166.17917 29.800013 166.85104Q30.675013 167.5073 30.675013 168.6323Q30.675013 169.83542 29.815638 170.49167L30.550013 170.55417L30.550013 171.53854L21.550013 171.53854L21.550013 170.46042L24.909388 170.46042Q24.096888 169.80417 24.096888 168.64792Q24.096888 167.49167 24.971888 166.83542Q25.831263 166.17917 27.362513 166.17917L27.456263 166.17917ZM27.331263 167.2573Q26.221888 167.2573 25.628138 167.6948Q25.018763 168.11667 25.018763 168.91354Q25.018763 169.99167 26.003138 170.46042L28.753138 170.46042Q29.753138 169.96042 29.753138 168.91354Q29.753138 168.1323 29.143763 167.6948Q28.534388 167.2573 27.331263 167.2573ZM27.456263 159.1948Q28.893763 159.1948 29.784388 159.85104Q30.675013 160.5073 30.675013 161.64792Q30.675013 162.80417 29.940638 163.46042L32.98751 163.46042L32.98751 164.53854L24.206263 164.53854L24.206263 163.55417L24.909388 163.5073Q24.096888 162.83542 24.096888 161.66354Q24.096888 160.52292 24.956263 159.86667Q25.815638 159.1948 27.346888 159.1948L27.456263 159.1948ZM27.331263 160.27292Q26.253138 160.27292 25.643763 160.74167Q25.018763 161.1948 25.018763 161.99167Q25.018763 162.97604 25.878138 163.46042L28.909388 163.46042Q29.784388 162.97604 29.784388 161.97604Q29.784388 161.1948 29.175013 160.74167Q28.550013 160.27292 27.331263 160.27292ZM28.862513 153.85104Q28.425013 153.85104 28.190638 154.1948Q27.940638 154.52292 27.768763 155.35104Q27.596888 156.16354 27.346888 156.64792Q27.096888 157.1323 26.768763 157.36667Q26.425013 157.58542 25.956263 157.58542Q25.175013 157.58542 24.643763 156.92917Q24.096888 156.27292 24.096888 155.24167Q24.096888 154.16354 24.659388 153.5073Q25.206263 152.83542 26.065638 152.83542L26.065638 153.91354Q25.628138 153.91354 25.315638 154.30417Q24.987513 154.67917 24.987513 155.24167Q24.987513 155.83542 25.253138 156.17917Q25.503138 156.5073 25.909388 156.5073Q26.300013 156.5073 26.503138 156.1948Q26.706263 155.8823 26.893763 155.0698Q27.065638 154.2573 27.315638 153.7573Q27.565638 153.2573 27.925013 153.02292Q28.284388 152.77292 28.784388 152.77292Q29.643763 152.77292 30.159388 153.46042Q30.675013 154.1323 30.675013 155.21042Q30.675013 155.97604 30.409388 156.5698Q30.128138 157.14792 29.643763 157.47604Q29.159388 157.80417 28.596888 157.80417L28.596888 156.72604Q29.143763 156.6948 29.471888 156.28854Q29.784388 155.8823 29.784388 155.21042Q29.784388 154.60104 29.534388 154.22604Q29.284388 153.85104 28.862513 153.85104ZM27.143763 149.03854Q28.456263 149.03854 29.659388 149.3823Q30.846888 149.72604 31.862513 150.4448Q32.878136 151.14792 33.30001 151.91354L32.64376 152.14792Q31.956263 151.24167 30.503138 150.6948Q29.034388 150.14792 27.268763 150.1323L27.081263 150.1323Q25.846888 150.1323 24.784388 150.39792Q23.721888 150.64792 22.893763 151.11667Q22.050013 151.5698 21.581263 152.14792L20.925013 151.91354Q21.346888 151.14792 22.346888 150.4448Q23.346888 149.74167 24.565638 149.39792Q25.768763 149.03854 27.143763 149.03854Z" fill-rule="nonzero"/><path fill="#000000" d="M78.6125 299.3094Q78.6125 301.21564 77.95625 302.15314Q77.31563 303.075 75.925 303.075Q74.56563 303.075 73.90938 302.16876Q73.25313 301.2625 73.22188 299.45L73.22188 298.0125Q73.22188 296.1219 73.8625 295.21564Q74.51875 294.29376 75.90938 294.29376Q77.28438 294.29376 77.94063 295.1844Q78.59688 296.0594 78.6125 297.90314L78.6125 299.3094ZM77.51875 297.825Q77.51875 296.45 77.12813 295.825Q76.75313 295.1844 75.90938 295.1844Q75.08125 295.1844 74.69063 295.825Q74.31563 296.45 74.31563 297.7469L74.31563 299.48126Q74.31563 300.85626 74.70625 301.52814Q75.1125 302.1844 75.925 302.1844Q76.72188 302.1844 77.1125 301.5594Q77.50313 300.9344 77.51875 299.60626L77.51875 297.825Z" fill-rule="nonzero"/><path fill="#000000" d="M59.753124 229.11319L60.190624 224.86319L64.56563 224.86319L64.56563 225.86319L61.1125 225.86319L60.846874 228.19131Q61.4875 227.81631 62.284374 227.81631Q63.440624 227.81631 64.12813 228.59756Q64.81563 229.36319 64.81563 230.67569Q64.81563 231.98819 64.09688 232.75381Q63.39375 233.51944 62.1125 233.51944Q60.9875 233.51944 60.26875 232.89444Q59.55 232.25381 59.45625 231.14444L60.471874 231.14444Q60.58125 231.87881 61.003124 232.25381Q61.425 232.62881 62.1125 232.62881Q62.8625 232.62881 63.3 232.11319Q63.7375 231.59756 63.7375 230.69131Q63.7375 229.83194 63.26875 229.31631Q62.8 228.80069 62.01875 228.80069Q61.315624 228.80069 60.909374 229.09756L60.628124 229.33194L59.753124 229.11319ZM71.6125 229.75381Q71.6125 231.66006 70.95625 232.59756Q70.31563 233.51944 68.925 233.51944Q67.56563 233.51944 66.90938 232.61319Q66.25313 231.70694 66.22188 229.89444L66.22188 228.45694Q66.22188 226.56631 66.8625 225.66006Q67.51875 224.73819 68.90938 224.73819Q70.28438 224.73819 70.94063 225.62881Q71.59688 226.50381 71.6125 228.34756L71.6125 229.75381ZM70.51875 228.26944Q70.51875 226.89444 70.12813 226.26944Q69.75313 225.62881 68.90938 225.62881Q68.08125 225.62881 67.69063 226.26944Q67.31563 226.89444 67.31563 228.19131L67.31563 229.92569Q67.31563 231.30069 67.70625 231.97256Q68.1125 232.62881 68.925 232.62881Q69.72188 232.62881 70.1125 232.00381Q70.50313 231.37881 70.51875 230.05069L70.51875 228.26944ZM78.6125 229.75381Q78.6125 231.66006 77.95625 232.59756Q77.31563 233.51944 75.925 233.51944Q74.56563 233.51944 73.90938 232.61319Q73.25313 231.70694 73.22188 229.89444L73.22188 228.45694Q73.22188 226.56631 73.8625 225.66006Q74.51875 224.73819 75.90938 224.73819Q77.28438 224.73819 77.94063 225.62881Q78.59688 226.50381 78.6125 228.34756L78.6125 229.75381ZM77.51875 228.26944Q77.51875 226.89444 77.12813 226.26944Q76.75313 225.62881 75.90938 225.62881Q75.08125 225.62881 74.69063 226.26944Q74.31563 226.89444 74.31563 228.19131L74.31563 229.92569Q74.31563 231.30069 74.70625 231.97256Q75.1125 232.62881 75.925 232.62881Q76.72188 232.62881 77.1125 232.00381Q77.50313 231.37881 77.51875 230.05069L77.51875 228.26944Z" fill-rule="nonzero"/><path fill="#000000" d="M55.815624 163.83888L54.7375 163.83888L54.7375 156.62013L52.55 157.417L52.55 156.43263L55.659374 155.26076L55.815624 155.26076L55.815624 163.83888ZM64.6125 160.19826Q64.6125 162.1045 63.95625 163.042Q63.315624 163.96388 61.925 163.96388Q60.565624 163.96388 59.909374 163.05763Q59.253124 162.15138 59.221874 160.33888L59.221874 158.90138Q59.221874 157.01076 59.8625 156.1045Q60.51875 155.18263 61.909374 155.18263Q63.284374 155.18263 63.940624 156.07326Q64.59688 156.94826 64.6125 158.792L64.6125 160.19826ZM63.51875 158.71388Q63.51875 157.33888 63.128124 156.71388Q62.753124 156.07326 61.909374 156.07326Q61.08125 156.07326 60.690624 156.71388Q60.315624 157.33888 60.315624 158.63576L60.315624 160.37013Q60.315624 161.74513 60.70625 162.417Q61.1125 163.07326 61.925 163.07326Q62.721874 163.07326 63.1125 162.44826Q63.503124 161.82326 63.51875 160.49513L63.51875 158.71388ZM71.6125 160.19826Q71.6125 162.1045 70.95625 163.042Q70.31563 163.96388 68.925 163.96388Q67.56563 163.96388 66.90938 163.05763Q66.25313 162.15138 66.22188 160.33888L66.22188 158.90138Q66.22188 157.01076 66.8625 156.1045Q67.51875 155.18263 68.90938 155.18263Q70.28438 155.18263 70.94063 156.07326Q71.59688 156.94826 71.6125 158.792L71.6125 160.19826ZM70.51875 158.71388Q70.51875 157.33888 70.12813 156.71388Q69.75313 156.07326 68.90938 156.07326Q68.08125 156.07326 67.69063 156.71388Q67.31563 157.33888 67.31563 158.63576L67.31563 160.37013Q67.31563 161.74513 67.70625 162.417Q68.1125 163.07326 68.925 163.07326Q69.72188 163.07326 70.1125 162.44826Q70.50313 161.82326 70.51875 160.49513L70.51875 158.71388ZM78.6125 160.19826Q78.6125 162.1045 77.95625 163.042Q77.31563 163.96388 75.925 163.96388Q74.56563 163.96388 73.90938 163.05763Q73.25313 162.15138 73.22188 160.33888L73.22188 158.90138Q73.22188 157.01076 73.8625 156.1045Q74.51875 155.18263 75.90938 155.18263Q77.28438 155.18263 77.94063 156.07326Q78.59688 156.94826 78.6125 158.792L78.6125 160.19826ZM77.51875 158.71388Q77.51875 157.33888 77.12813 156.71388Q76.75313 156.07326 75.90938 156.07326Q75.08125 156.07326 74.69063 156.71388Q74.31563 157.33888 74.31563 158.63576L74.31563 160.37013Q74.31563 161.74513 74.70625 162.417Q75.1125 163.07326 75.925 163.07326Q76.72188 163.07326 77.1125 162.44826Q77.50313 161.82326 77.51875 160.49513L77.51875 158.71388Z" fill-rule="nonzero"/><path fill="#000000" d="M55.815624 94.28333L54.7375 94.28333L54.7375 87.06458L52.55 87.86146L52.55 86.87708L55.659374 85.70521L55.815624 85.70521L55.815624 94.28333ZM59.753124 90.00208L60.190624 85.75208L64.56563 85.75208L64.56563 86.75208L61.1125 86.75208L60.846874 89.08021Q61.4875 88.70521 62.284374 88.70521Q63.440624 88.70521 64.12813 89.48646Q64.81563 90.25208 64.81563 91.56458Q64.81563 92.87708 64.09688 93.64271Q63.39375 94.40833 62.1125 94.40833Q60.9875 94.40833 60.26875 93.78333Q59.55 93.14271 59.45625 92.03333L60.471874 92.03333Q60.58125 92.76771 61.003124 93.14271Q61.425 93.51771 62.1125 93.51771Q62.8625 93.51771 63.3 93.00208Q63.7375 92.48646 63.7375 91.58021Q63.7375 90.72083 63.26875 90.20521Q62.8 89.68958 62.01875 89.68958Q61.315624 89.68958 60.909374 89.98646L60.628124 90.22083L59.753124 90.00208ZM71.6125 90.64271Q71.6125 92.54896 70.95625 93.48646Q70.31563 94.40833 68.925 94.40833Q67.56563 94.40833 66.90938 93.50208Q66.25313 92.59583 66.22188 90.78333L66.22188 89.34583Q66.22188 87.45521 66.8625 86.54896Q67.51875 85.62708 68.90938 85.62708Q70.28438 85.62708 70.94063 86.51771Q71.59688 87.39271 71.6125 89.23646L71.6125 90.64271ZM70.51875 89.15833Q70.51875 87.78333 70.12813 87.15833Q69.75313 86.51771 68.90938 86.51771Q68.08125 86.51771 67.69063 87.15833Q67.31563 87.78333 67.31563 89.08021L67.31563 90.81458Q67.31563 92.18958 67.70625 92.86146Q68.1125 93.51771 68.925 93.51771Q69.72188 93.51771 70.1125 92.89271Q70.50313 92.26771 70.51875 90.93958L70.51875 89.15833ZM78.6125 90.64271Q78.6125 92.54896 77.95625 93.48646Q77.31563 94.40833 75.925 94.40833Q74.56563 94.40833 73.90938 93.50208Q73.25313 92.59583 73.22188 90.78333L73.22188 89.34583Q73.22188 87.45521 73.8625 86.54896Q74.51875 85.62708 75.90938 85.62708Q77.28438 85.62708 77.94063 86.51771Q78.59688 87.39271 78.6125 89.23646L78.6125 90.64271ZM77.51875 89.15833Q77.51875 87.78333 77.12813 87.15833Q76.75313 86.51771 75.90938 86.51771Q75.08125 86.51771 74.69063 87.15833Q74.31563 87.78333 74.31563 89.08021L74.31563 90.81458Q74.31563 92.18958 74.70625 92.86146Q75.1125 93.51771 75.925 93.51771Q76.72188 93.51771 77.1125 92.89271Q77.50313 92.26771 77.51875 90.93958L77.51875 89.15833Z" fill-rule="nonzero"/><path fill="#000000" d="M559.5125 299.3094Q559.5125 301.21564 558.85626 302.15314Q558.21564 303.075 556.825 303.075Q555.46564 303.075 554.8094 302.16876Q554.15314 301.2625 554.1219 299.45L554.1219 298.0125Q554.1219 296.1219 554.7625 295.21564Q555.41876 294.29376 556.8094 294.29376Q558.1844 294.29376 558.84064 295.1844Q559.4969 296.0594 559.5125 297.90314L559.5125 299.3094ZM558.41876 297.825Q558.41876 296.45 558.02814 295.825Q557.65314 295.1844 556.8094 295.1844Q555.98126 295.1844 555.59064 295.825Q555.21564 296.45 555.21564 297.7469L555.21564 299.48126Q555.21564 300.85626 555.60626 301.52814Q556.0125 302.1844 556.825 302.1844Q557.6219 302.1844 558.0125 301.5594Q558.40314 300.9344 558.41876 299.60626L558.41876 297.825Z" fill-rule="nonzero"/><path fill="#000000" d="M554.65314 256.93542L555.09064 252.68542L559.46564 252.68542L559.46564 253.68542L556.0125 253.68542L555.7469 256.01355Q556.3875 255.63855 557.1844 255.63855Q558.34064 255.63855 559.02814 256.4198Q559.71564 257.18542 559.71564 258.49792Q559.71564 259.81042 558.9969 260.57605Q558.29376 261.34167 557.0125 261.34167Q555.8875 261.34167 555.16876 260.71667Q554.45 260.07605 554.35626 258.96667L555.3719 258.96667Q555.48126 259.70105 555.90314 260.07605Q556.325 260.45105 557.0125 260.45105Q557.7625 260.45105 558.2 259.93542Q558.6375 259.4198 558.6375 258.51355Q558.6375 257.65417 558.16876 257.13855Q557.7 256.62292 556.91876 256.62292Q556.21564 256.62292 555.8094 256.9198L555.52814 257.15417L554.65314 256.93542ZM566.5125 257.57605Q566.5125 259.4823 565.85626 260.4198Q565.21564 261.34167 563.825 261.34167Q562.46564 261.34167 561.8094 260.43542Q561.15314 259.52917 561.1219 257.71667L561.1219 256.27917Q561.1219 254.38855 561.7625 253.4823Q562.41876 252.56042 563.8094 252.56042Q565.1844 252.56042 565.84064 253.45105Q566.4969 254.32605 566.5125 256.1698L566.5125 257.57605ZM565.41876 256.09167Q565.41876 254.71667 565.02814 254.09167Q564.65314 253.45105 563.8094 253.45105Q562.98126 253.45105 562.59064 254.09167Q562.21564 254.71667 562.21564 256.01355L562.21564 257.74792Q562.21564 259.12292 562.60626 259.7948Q563.0125 260.45105 563.825 260.45105Q564.6219 260.45105 565.0125 259.82605Q565.40314 259.20105 565.41876 257.87292L565.41876 256.09167ZM573.5125 257.57605Q573.5125 259.4823 572.85626 260.4198Q572.21564 261.34167 570.825 261.34167Q569.46564 261.34167 568.8094 260.43542Q568.15314 259.52917 568.1219 257.71667L568.1219 256.27917Q568.1219 254.38855 568.7625 253.4823Q569.41876 252.56042 570.8094 252.56042Q572.1844 252.56042 572.84064 253.45105Q573.4969 254.32605 573.5125 256.1698L573.5125 257.57605ZM572.41876 256.09167Q572.41876 254.71667 572.02814 254.09167Q571.65314 253.45105 570.8094 253.45105Q569.98126 253.45105 569.59064 254.09167Q569.21564 254.71667 569.21564 256.01355L569.21564 257.74792Q569.21564 259.12292 569.60626 259.7948Q570.0125 260.45105 570.825 260.45105Q571.6219 260.45105 572.0125 259.82605Q572.40314 259.20105 572.41876 257.87292L572.41876 256.09167Z" fill-rule="nonzero"/><path fill="#000000" d="M557.71564 219.48334L556.6375 219.48334L556.6375 212.26459L554.45 213.06146L554.45 212.07709L557.5594 210.90521L557.71564 210.90521L557.71564 219.48334ZM566.5125 215.84271Q566.5125 217.74896 565.85626 218.68646Q565.21564 219.60834 563.825 219.60834Q562.46564 219.60834 561.8094 218.70209Q561.15314 217.79584 561.1219 215.98334L561.1219 214.54584Q561.1219 212.65521 561.7625 211.74896Q562.41876 210.82709 563.8094 210.82709Q565.1844 210.82709 565.84064 211.71771Q566.4969 212.59271 566.5125 214.43646L566.5125 215.84271ZM565.41876 214.35834Q565.41876 212.98334 565.02814 212.35834Q564.65314 211.71771 563.8094 211.71771Q562.98126 211.71771 562.59064 212.35834Q562.21564 212.98334 562.21564 214.28021L562.21564 216.01459Q562.21564 217.38959 562.60626 218.06146Q563.0125 218.71771 563.825 218.71771Q564.6219 218.71771 565.0125 218.09271Q565.40314 217.46771 565.41876 216.13959L565.41876 214.35834ZM573.5125 215.84271Q573.5125 217.74896 572.85626 218.68646Q572.21564 219.60834 570.825 219.60834Q569.46564 219.60834 568.8094 218.70209Q568.15314 217.79584 568.1219 215.98334L568.1219 214.54584Q568.1219 212.65521 568.7625 211.74896Q569.41876 210.82709 570.8094 210.82709Q572.1844 210.82709 572.84064 211.71771Q573.4969 212.59271 573.5125 214.43646L573.5125 215.84271ZM572.41876 214.35834Q572.41876 212.98334 572.02814 212.35834Q571.65314 211.71771 570.8094 211.71771Q569.98126 211.71771 569.59064 212.35834Q569.21564 212.98334 569.21564 214.28021L569.21564 216.01459Q569.21564 217.38959 569.60626 218.06146Q570.0125 218.71771 570.825 218.71771Q571.6219 218.71771 572.0125 218.09271Q572.40314 217.46771 572.41876 216.13959L572.41876 214.35834ZM580.5125 215.84271Q580.5125 217.74896 579.85626 218.68646Q579.21564 219.60834 577.825 219.60834Q576.46564 219.60834 575.8094 218.70209Q575.15314 217.79584 575.1219 215.98334L575.1219 214.54584Q575.1219 212.65521 575.7625 211.74896Q576.41876 210.82709 577.8094 210.82709Q579.1844 210.82709 579.84064 211.71771Q580.4969 212.59271 580.5125 214.43646L580.5125 215.84271ZM579.41876 214.35834Q579.41876 212.98334 579.02814 212.35834Q578.65314 211.71771 577.8094 211.71771Q576.98126 211.71771 576.59064 212.35834Q576.21564 212.98334 576.21564 214.28021L576.21564 216.01459Q576.21564 217.38959 576.60626 218.06146Q577.0125 218.71771 577.825 218.71771Q578.6219 218.71771 579.0125 218.09271Q579.40314 217.46771 579.41876 216.13959L579.41876 214.35834Z" fill-rule="nonzero"/><path fill="#000000" d="M557.71564 177.75L556.6375 177.75L556.6375 170.53125L554.45 171.32812L554.45 170.34375L557.5594 169.17188L557.71564 169.17188L557.71564 177.75ZM561.65314 173.46875L562.09064 169.21875L566.46564 169.21875L566.46564 170.21875L563.0125 170.21875L562.7469 172.54688Q563.3875 172.17188 564.1844 172.17188Q565.34064 172.17188 566.02814 172.95312Q566.71564 173.71875 566.71564 175.03125Q566.71564 176.34375 565.9969 177.10938Q565.29376 177.875 564.0125 177.875Q562.8875 177.875 562.16876 177.25Q561.45 176.60938 561.35626 175.5L562.3719 175.5Q562.48126 176.23438 562.90314 176.60938Q563.325 176.98438 564.0125 176.98438Q564.7625 176.98438 565.2 176.46875Q565.6375 175.95312 565.6375 175.04688Q565.6375 174.1875 565.16876 173.67188Q564.7 173.15625 563.91876 173.15625Q563.21564 173.15625 562.8094 173.45312L562.52814 173.6875L561.65314 173.46875ZM573.5125 174.10938Q573.5125 176.01562 572.85626 176.95312Q572.21564 177.875 570.825 177.875Q569.46564 177.875 568.8094 176.96875Q568.15314 176.0625 568.1219 174.25L568.1219 172.8125Q568.1219 170.92188 568.7625 170.01562Q569.41876 169.09375 570.8094 169.09375Q572.1844 169.09375 572.84064 169.98438Q573.4969 170.85938 573.5125 172.70312L573.5125 174.10938ZM572.41876 172.625Q572.41876 171.25 572.02814 170.625Q571.65314 169.98438 570.8094 169.98438Q569.98126 169.98438 569.59064 170.625Q569.21564 171.25 569.21564 172.54688L569.21564 174.28125Q569.21564 175.65625 569.60626 176.32812Q570.0125 176.98438 570.825 176.98438Q571.6219 176.98438 572.0125 176.35938Q572.40314 175.73438 572.41876 174.40625L572.41876 172.625ZM580.5125 174.10938Q580.5125 176.01562 579.85626 176.95312Q579.21564 177.875 577.825 177.875Q576.46564 177.875 575.8094 176.96875Q575.15314 176.0625 575.1219 174.25L575.1219 172.8125Q575.1219 170.92188 575.7625 170.01562Q576.41876 169.09375 577.8094 169.09375Q579.1844 169.09375 579.84064 169.98438Q580.4969 170.85938 580.5125 172.70312L580.5125 174.10938ZM579.41876 172.625Q579.41876 171.25 579.02814 170.625Q578.65314 169.98438 577.8094 169.98438Q576.98126 169.98438 576.59064 170.625Q576.21564 171.25 576.21564 172.54688L576.21564 174.28125Q576.21564 175.65625 576.60626 176.32812Q577.0125 176.98438 577.825 176.98438Q578.6219 176.98438 579.0125 176.35938Q579.40314 175.73438 579.41876 174.40625L579.41876 172.625Z" fill-rule="nonzero"/><path fill="#000000" d="M559.7469 136.01666L554.15314 136.01666L554.15314 135.23541L557.10626 131.95416Q557.7625 131.20416 558.0125 130.75104Q558.2625 130.28229 558.2625 129.78229Q558.2625 129.11041 557.85626 128.68854Q557.46564 128.25104 556.77814 128.25104Q555.98126 128.25104 555.52814 128.71979Q555.075 129.17291 555.075 130.00104L553.9969 130.00104Q553.9969 128.81354 554.7469 128.09479Q555.5125 127.36041 556.77814 127.36041Q557.98126 127.36041 558.66876 127.98541Q559.35626 128.61041 559.35626 129.65729Q559.35626 130.90729 557.7469 132.65729L555.46564 135.12604L559.7469 135.12604L559.7469 136.01666ZM566.5125 132.37604Q566.5125 134.28229 565.85626 135.21979Q565.21564 136.14166 563.825 136.14166Q562.46564 136.14166 561.8094 135.23541Q561.15314 134.32916 561.1219 132.51666L561.1219 131.07916Q561.1219 129.18854 561.7625 128.28229Q562.41876 127.36041 563.8094 127.36041Q565.1844 127.36041 565.84064 128.25104Q566.4969 129.12604 566.5125 130.96979L566.5125 132.37604ZM565.41876 130.89166Q565.41876 129.51666 565.02814 128.89166Q564.65314 128.25104 563.8094 128.25104Q562.98126 128.25104 562.59064 128.89166Q562.21564 129.51666 562.21564 130.81354L562.21564 132.54791Q562.21564 133.92291 562.60626 134.59479Q563.0125 135.25104 563.825 135.25104Q564.6219 135.25104 565.0125 134.62604Q565.40314 134.00104 565.41876 132.67291L565.41876 130.89166ZM573.5125 132.37604Q573.5125 134.28229 572.85626 135.21979Q572.21564 136.14166 570.825 136.14166Q569.46564 136.14166 568.8094 135.23541Q568.15314 134.32916 568.1219 132.51666L568.1219 131.07916Q568.1219 129.18854 568.7625 128.28229Q569.41876 127.36041 570.8094 127.36041Q572.1844 127.36041 572.84064 128.25104Q573.4969 129.12604 573.5125 130.96979L573.5125 132.37604ZM572.41876 130.89166Q572.41876 129.51666 572.02814 128.89166Q571.65314 128.25104 570.8094 128.25104Q569.98126 128.25104 569.59064 128.89166Q569.21564 129.51666 569.21564 130.81354L569.21564 132.54791Q569.21564 133.92291 569.60626 134.59479Q570.0125 135.25104 570.825 135.25104Q571.6219 135.25104 572.0125 134.62604Q572.40314 134.00104 572.41876 132.67291L572.41876 130.89166ZM580.5125 132.37604Q580.5125 134.28229 579.85626 135.21979Q579.21564 136.14166 577.825 136.14166Q576.46564 136.14166 575.8094 135.23541Q575.15314 134.32916 575.1219 132.51666L575.1219 131.07916Q575.1219 129.18854 575.7625 128.28229Q576.41876 127.36041 577.8094 127.36041Q579.1844 127.36041 579.84064 128.25104Q580.4969 129.12604 580.5125 130.96979L580.5125 132.37604ZM579.41876 130.89166Q579.41876 129.51666 579.02814 128.89166Q578.65314 128.25104 577.8094 128.25104Q576.98126 128.25104 576.59064 128.89166Q576.21564 129.51666 576.21564 130.81354L576.21564 132.54791Q576.21564 133.92291 576.60626 134.59479Q577.0125 135.25104 577.825 135.25104Q578.6219 135.25104 579.0125 134.62604Q579.40314 134.00104 579.41876 132.67291L579.41876 130.89166Z" fill-rule="nonzero"/><path fill="#000000" d="M559.7469 94.28333L554.15314 94.28333L554.15314 93.50208L557.10626 90.22083Q557.7625 89.47083 558.0125 89.01771Q558.2625 88.54896 558.2625 88.04896Q558.2625 87.37708 557.85626 86.95521Q557.46564 86.51771 556.77814 86.51771Q555.98126 86.51771 555.52814 86.98646Q555.075 87.43958 555.075 88.26771L553.9969 88.26771Q553.9969 87.08021 554.7469 86.36146Q555.5125 85.62708 556.77814 85.62708Q557.98126 85.62708 558.66876 86.25208Q559.35626 86.87708 559.35626 87.92396Q559.35626 89.17396 557.7469 90.92396L555.46564 93.39271L559.7469 93.39271L559.7469 94.28333ZM561.65314 90.00208L562.09064 85.75208L566.46564 85.75208L566.46564 86.75208L563.0125 86.75208L562.7469 89.08021Q563.3875 88.70521 564.1844 88.70521Q565.34064 88.70521 566.02814 89.48646Q566.71564 90.25208 566.71564 91.56458Q566.71564 92.87708 565.9969 93.64271Q565.29376 94.40833 564.0125 94.40833Q562.8875 94.40833 562.16876 93.78333Q561.45 93.14271 561.35626 92.03333L562.3719 92.03333Q562.48126 92.76771 562.90314 93.14271Q563.325 93.51771 564.0125 93.51771Q564.7625 93.51771 565.2 93.00208Q565.6375 92.48646 565.6375 91.58021Q565.6375 90.72083 565.16876 90.20521Q564.7 89.68958 563.91876 89.68958Q563.21564 89.68958 562.8094 89.98646L562.52814 90.22083L561.65314 90.00208ZM573.5125 90.64271Q573.5125 92.54896 572.85626 93.48646Q572.21564 94.40833 570.825 94.40833Q569.46564 94.40833 568.8094 93.50208Q568.15314 92.59583 568.1219 90.78333L568.1219 89.34583Q568.1219 87.45521 568.7625 86.54896Q569.41876 85.62708 570.8094 85.62708Q572.1844 85.62708 572.84064 86.51771Q573.4969 87.39271 573.5125 89.23646L573.5125 90.64271ZM572.41876 89.15833Q572.41876 87.78333 572.02814 87.15833Q571.65314 86.51771 570.8094 86.51771Q569.98126 86.51771 569.59064 87.15833Q569.21564 87.78333 569.21564 89.08021L569.21564 90.81458Q569.21564 92.18958 569.60626 92.86146Q570.0125 93.51771 570.825 93.51771Q571.6219 93.51771 572.0125 92.89271Q572.40314 92.26771 572.41876 90.93958L572.41876 89.15833ZM580.5125 90.64271Q580.5125 92.54896 579.85626 93.48646Q579.21564 94.40833 577.825 94.40833Q576.46564 94.40833 575.8094 93.50208Q575.15314 92.59583 575.1219 90.78333L575.1219 89.34583Q575.1219 87.45521 575.7625 86.54896Q576.41876 85.62708 577.8094 85.62708Q579.1844 85.62708 579.84064 86.51771Q580.4969 87.39271 580.5125 89.23646L580.5125 90.64271ZM579.41876 89.15833Q579.41876 87.78333 579.02814 87.15833Q578.65314 86.51771 577.8094 86.51771Q576.98126 86.51771 576.59064 87.15833Q576.21564 87.78333 576.21564 89.08021L576.21564 90.81458Q576.21564 92.18958 576.60626 92.86146Q577.0125 93.51771 577.825 93.51771Q578.6219 93.51771 579.0125 92.89271Q579.40314 92.26771 579.41876 90.93958L579.41876 89.15833Z" fill-rule="nonzero"/><path fill="#000000" d="M119.30848 316.45L118.230354 316.45L118.230354 309.23126L116.042854 310.02814L116.042854 309.04376L119.15223 307.8719L119.30848 307.8719L119.30848 316.45Z" fill-rule="nonzero"/><path fill="#000000" d="M182.23169 312.16876L182.66919 307.91876L187.04419 307.91876L187.04419 308.91876L183.59106 308.91876L183.32544 311.2469Q183.96606 310.8719 184.76294 310.8719Q185.91919 310.8719 186.60669 311.65314Q187.29419 312.41876 187.29419 313.73126Q187.29419 315.04376 186.57544 315.8094Q185.87231 316.575 184.59106 316.575Q183.46606 316.575 182.74731 315.95Q182.02856 315.3094 181.93481 314.2L182.95044 314.2Q183.05981 314.9344 183.48169 315.3094Q183.90356 315.6844 184.59106 315.6844Q185.34106 315.6844 185.77856 315.16876Q186.21606 314.65314 186.21606 313.7469Q186.21606 312.8875 185.74731 312.3719Q185.27856 311.85626 184.49731 311.85626Q183.79419 311.85626 183.38794 312.15314L183.10669 312.3875L182.23169 312.16876Z" fill-rule="nonzero"/><path fill="#000000" d="M247.7799 316.45L246.70178 316.45L246.70178 309.23126L244.51428 310.02814L244.51428 309.04376L247.62366 307.8719L247.7799 307.8719L247.7799 316.45ZM256.57678 312.8094Q256.57678 314.71564 255.92053 315.65314Q255.2799 316.575 253.88928 316.575Q252.5299 316.575 251.87366 315.66876Q251.2174 314.7625 251.18616 312.95L251.18616 311.5125Q251.18616 309.6219 251.82678 308.71564Q252.48303 307.79376 253.87366 307.79376Q255.24866 307.79376 255.9049 308.6844Q256.56116 309.5594 256.57678 311.40314L256.57678 312.8094ZM255.48303 311.325Q255.48303 309.95 255.0924 309.325Q254.7174 308.6844 253.87366 308.6844Q253.04553 308.6844 252.6549 309.325Q252.2799 309.95 252.2799 311.2469L252.2799 312.98126Q252.2799 314.35626 252.67053 315.02814Q253.07678 315.6844 253.88928 315.6844Q254.68616 315.6844 255.07678 315.0594Q255.4674 314.4344 255.48303 313.10626L255.48303 311.325Z" fill-rule="nonzero"/><path fill="#000000" d="M315.79688 316.45L310.20312 316.45L310.20312 315.66876L313.15625 312.3875Q313.8125 311.6375 314.0625 311.1844Q314.3125 310.71564 314.3125 310.21564Q314.3125 309.54376 313.90625 309.1219Q313.51562 308.6844 312.82812 308.6844Q312.03125 308.6844 311.57812 309.15314Q311.125 309.60626 311.125 310.4344L310.04688 310.4344Q310.04688 309.2469 310.79688 308.52814Q311.5625 307.79376 312.82812 307.79376Q314.03125 307.79376 314.71875 308.41876Q315.40625 309.04376 315.40625 310.09064Q315.40625 311.34064 313.79688 313.09064L311.51562 315.5594L315.79688 315.5594L315.79688 316.45ZM322.5625 312.8094Q322.5625 314.71564 321.90625 315.65314Q321.26562 316.575 319.875 316.575Q318.51562 316.575 317.85938 315.66876Q317.20312 314.7625 317.17188 312.95L317.17188 311.5125Q317.17188 309.6219 317.8125 308.71564Q318.46875 307.79376 319.85938 307.79376Q321.23438 307.79376 321.89062 308.6844Q322.54688 309.5594 322.5625 311.40314L322.5625 312.8094ZM321.46875 311.325Q321.46875 309.95 321.07812 309.325Q320.70312 308.6844 319.85938 308.6844Q319.03125 308.6844 318.64062 309.325Q318.26562 309.95 318.26562 311.2469L318.26562 312.98126Q318.26562 314.35626 318.65625 315.02814Q319.0625 315.6844 319.875 315.6844Q320.67188 315.6844 321.0625 315.0594Q321.45312 314.4344 321.46875 313.10626L321.46875 311.325Z" fill-rule="nonzero"/><path fill="#000000" d="M377.76697 311.65314L378.57947 311.65314Q379.36072 311.6375 379.79822 311.2469Q380.23572 310.85626 380.23572 310.1844Q380.23572 308.6844 378.73572 308.6844Q378.0326 308.6844 377.61072 309.09064Q377.20447 309.4969 377.20447 310.15314L376.11072 310.15314Q376.11072 309.1375 376.8451 308.46564Q377.5951 307.79376 378.73572 307.79376Q379.93884 307.79376 380.62634 308.4344Q381.31384 309.075 381.31384 310.21564Q381.31384 310.77814 380.95447 311.29376Q380.5951 311.8094 379.9701 312.075Q380.67322 312.29376 381.04822 312.8094Q381.43884 313.325 381.43884 314.075Q381.43884 315.21564 380.68884 315.90314Q379.93884 316.575 378.73572 316.575Q377.54822 316.575 376.7826 315.91876Q376.0326 315.2625 376.0326 314.2L377.12634 314.2Q377.12634 314.8719 377.56384 315.27814Q378.00134 315.6844 378.75134 315.6844Q379.5326 315.6844 379.93884 315.27814Q380.36072 314.85626 380.36072 314.09064Q380.36072 313.35626 379.9076 312.96564Q379.45447 312.5594 378.57947 312.54376L377.76697 312.54376L377.76697 311.65314ZM388.54822 312.8094Q388.54822 314.71564 387.89197 315.65314Q387.25134 316.575 385.86072 316.575Q384.50134 316.575 383.8451 315.66876Q383.18884 314.7625 383.1576 312.95L383.1576 311.5125Q383.1576 309.6219 383.79822 308.71564Q384.45447 307.79376 385.8451 307.79376Q387.2201 307.79376 387.87634 308.6844Q388.5326 309.5594 388.54822 311.40314L388.54822 312.8094ZM387.45447 311.325Q387.45447 309.95 387.06384 309.325Q386.68884 308.6844 385.8451 308.6844Q385.01697 308.6844 384.62634 309.325Q384.25134 309.95 384.25134 311.2469L384.25134 312.98126Q384.25134 314.35626 384.64197 315.02814Q385.04822 315.6844 385.86072 315.6844Q386.6576 315.6844 387.04822 315.0594Q387.43884 314.4344 387.45447 313.10626L387.45447 311.325Z" fill-rule="nonzero"/><path fill="#000000" d="M446.7527 313.59064L447.9402 313.59064L447.9402 314.46564L446.7527 314.46564L446.7527 316.45L445.67456 316.45L445.67456 314.46564L441.78394 314.46564L441.78394 313.825L445.59644 307.91876L446.7527 307.91876L446.7527 313.59064ZM443.0183 313.59064L445.67456 313.59064L445.67456 309.40314L445.53394 309.6375L443.0183 313.59064ZM449.67456 312.16876L450.11206 307.91876L454.48706 307.91876L454.48706 308.91876L451.03394 308.91876L450.7683 311.2469Q451.40894 310.8719 452.2058 310.8719Q453.36206 310.8719 454.04956 311.65314Q454.73706 312.41876 454.73706 313.73126Q454.73706 315.04376 454.0183 315.8094Q453.3152 316.575 452.03394 316.575Q450.90894 316.575 450.1902 315.95Q449.47144 315.3094 449.3777 314.2L450.3933 314.2Q450.5027 314.9344 450.92456 315.3094Q451.34644 315.6844 452.03394 315.6844Q452.78394 315.6844 453.22144 315.16876Q453.65894 314.65314 453.65894 313.7469Q453.65894 312.8875 453.1902 312.3719Q452.72144 311.85626 451.9402 311.85626Q451.23706 311.85626 450.8308 312.15314L450.54956 312.3875L449.67456 312.16876Z" fill-rule="nonzero"/><path fill="#000000" d="M512.4259 307.91876L512.4259 308.825L512.2228 308.825Q510.95715 308.85626 510.20715 309.59064Q509.45715 310.3094 509.33215 311.6219Q510.01965 310.85626 511.1759 310.85626Q512.2853 310.85626 512.95715 311.6375Q513.629 312.41876 513.629 313.66876Q513.629 314.98126 512.9103 315.77814Q512.1915 316.575 510.97278 316.575Q509.75403 316.575 508.9884 315.6375Q508.2384 314.6844 508.2384 313.2L508.2384 312.79376Q508.2384 310.4344 509.2384 309.1844Q510.2384 307.9344 512.2228 307.91876L512.4259 307.91876ZM511.00403 311.7625Q510.44153 311.7625 509.97278 312.09064Q509.50403 312.41876 509.31653 312.9344L509.31653 313.325Q509.31653 314.3875 509.78528 315.02814Q510.26965 315.66876 510.97278 315.66876Q511.70715 315.66876 512.129 315.1375Q512.5509 314.59064 512.5509 313.71564Q512.5509 312.84064 512.129 312.3094Q511.70715 311.7625 511.00403 311.7625ZM519.7384 313.59064L520.9259 313.59064L520.9259 314.46564L519.7384 314.46564L519.7384 316.45L518.6603 316.45L518.6603 314.46564L514.76965 314.46564L514.76965 313.825L518.58215 307.91876L519.7384 307.91876L519.7384 313.59064ZM516.004 313.59064L518.6603 313.59064L518.6603 309.40314L518.51965 309.6375L516.004 313.59064Z" fill-rule="nonzero"/><path stroke="#4285f4" stroke-width="4.0" stroke-linecap="butt" d="M160.5 62.416668L172.5 62.416668" fill-rule="nonzero"/><path fill="#000000" d="M186.20312 64.68229L182.625 64.68229L181.82812 66.916664L180.67188 66.916664L183.92188 58.385414L184.90625 58.385414L188.17188 66.916664L187.01562 66.916664L186.20312 64.68229ZM182.96875 63.760414L185.875 63.760414L184.42188 59.77604L182.96875 63.760414ZM191.40625 65.447914L192.98438 60.572914L194.09375 60.572914L191.8125 66.916664L190.98438 66.916664L188.6875 60.572914L189.79688 60.572914L191.40625 65.447914ZM195.0625 63.697914Q195.0625 62.21354 195.75 61.33854Q196.4375 60.46354 197.5625 60.46354Q198.71875 60.46354 199.375 61.27604L199.42188 60.572914L200.42188 60.572914L200.42188 66.760414Q200.42188 67.99479 199.6875 68.697914Q198.95312 69.416664 197.73438 69.416664Q197.04688 69.416664 196.39062 69.11979Q195.73438 68.822914 195.39062 68.322914L195.95312 67.666664Q196.64062 68.52604 197.65625 68.52604Q198.4375 68.52604 198.875 68.072914Q199.32812 67.635414 199.32812 66.822914L199.32812 66.27604Q198.67188 67.041664 197.54688 67.041664Q196.4375 67.041664 195.75 66.15104Q195.0625 65.24479 195.0625 63.697914ZM196.15625 63.822914Q196.15625 64.885414 196.59375 65.510414Q197.03125 66.11979 197.82812 66.11979Q198.84375 66.11979 199.32812 65.18229L199.32812 62.291664Q198.82812 61.385414 197.82812 61.385414Q197.04688 61.385414 196.59375 61.99479Q196.15625 62.604164 196.15625 63.822914ZM202.34375 66.354164Q202.34375 66.072914 202.5 65.885414Q202.67188 65.697914 203.0 65.697914Q203.34375 65.697914 203.51562 65.885414Q203.6875 66.072914 203.6875 66.354164Q203.6875 66.61979 203.51562 66.80729Q203.34375 66.979164 203.0 66.979164Q202.67188 66.979164 202.5 66.80729Q202.34375 66.61979 202.34375 66.354164ZM214.39062 59.30729L211.64062 59.30729L211.64062 66.916664L210.53125 66.916664L210.53125 59.30729L207.78125 59.30729L207.78125 58.385414L214.39062 58.385414L214.39062 59.30729ZM216.40625 61.33854Q217.125 60.46354 218.28125 60.46354Q220.29688 60.46354 220.3125 62.729164L220.3125 66.916664L219.21875 66.916664L219.21875 62.71354Q219.21875 62.041664 218.90625 61.71354Q218.60938 61.385414 217.95312 61.385414Q217.42188 61.385414 217.01562 61.666664Q216.625 61.947914 216.40625 62.40104L216.40625 66.916664L215.32812 66.916664L215.32812 57.916664L216.40625 57.916664L216.40625 61.33854ZM225.39062 61.541664Q225.14062 61.510414 224.85938 61.510414Q223.78125 61.510414 223.40625 62.416664L223.40625 66.916664L222.32812 66.916664L222.32812 60.572914L223.375 60.572914L223.39062 61.30729Q223.92188 60.46354 224.90625 60.46354Q225.21875 60.46354 225.39062 60.541664L225.39062 61.541664ZM226.03125 63.68229Q226.03125 62.760414 226.39062 62.010414Q226.76562 61.260414 227.42188 60.86979Q228.07812 60.46354 228.90625 60.46354Q230.20312 60.46354 231.0 61.354164Q231.8125 62.24479 231.8125 63.74479L231.8125 63.822914Q231.8125 64.74479 231.45312 65.479164Q231.09375 66.21354 230.4375 66.635414Q229.78125 67.041664 228.92188 67.041664Q227.64062 67.041664 226.82812 66.15104Q226.03125 65.24479 226.03125 63.760414L226.03125 63.68229ZM227.125 63.822914Q227.125 64.86979 227.60938 65.510414Q228.10938 66.15104 228.92188 66.15104Q229.75 66.15104 230.23438 65.510414Q230.71875 64.854164 230.71875 63.68229Q230.71875 62.65104 230.21875 62.010414Q229.73438 61.354164 228.90625 61.354164Q228.10938 61.354164 227.60938 61.99479Q227.125 62.61979 227.125 63.822914ZM237.23438 66.291664Q236.60938 67.041664 235.375 67.041664Q234.35938 67.041664 233.82812 66.447914Q233.29688 65.854164 233.29688 64.697914L233.29688 60.572914L234.375 60.572914L234.375 64.666664Q234.375 66.11979 235.54688 66.11979Q236.79688 66.11979 237.20312 65.18229L237.20312 60.572914L238.29688 60.572914L238.29688 66.916664L237.26562 66.916664L237.23438 66.291664ZM240.0625 63.697914Q240.0625 62.21354 240.75 61.33854Q241.4375 60.46354 242.5625 60.46354Q243.71875 60.46354 244.375 61.27604L244.42188 60.572914L245.42188 60.572914L245.42188 66.760414Q245.42188 67.99479 244.6875 68.697914Q243.95312 69.416664 242.73438 69.416664Q242.04688 69.416664 241.39062 69.11979Q240.73438 68.822914 240.39062 68.322914L240.95312 67.666664Q241.64062 68.52604 242.65625 68.52604Q243.4375 68.52604 243.875 68.072914Q244.32812 67.635414 244.32812 66.822914L244.32812 66.27604Q243.67188 67.041664 242.54688 67.041664Q241.4375 67.041664 240.75 66.15104Q240.0625 65.24479 240.0625 63.697914ZM241.15625 63.822914Q241.15625 64.885414 241.59375 65.510414Q242.03125 66.11979 242.82812 66.11979Q243.84375 66.11979 244.32812 65.18229L244.32812 62.291664Q243.82812 61.385414 242.82812 61.385414Q242.04688 61.385414 241.59375 61.99479Q241.15625 62.604164 241.15625 63.822914ZM248.40625 61.33854Q249.125 60.46354 250.28125 60.46354Q252.29688 60.46354 252.3125 62.729164L252.3125 66.916664L251.21875 66.916664L251.21875 62.71354Q251.21875 62.041664 250.90625 61.71354Q250.60938 61.385414 249.95312 61.385414Q249.42188 61.385414 249.01562 61.666664Q248.625 61.947914 248.40625 62.40104L248.40625 66.916664L247.32812 66.916664L247.32812 57.916664L248.40625 57.916664L248.40625 61.33854ZM259.67188 63.822914Q259.67188 65.260414 259.01562 66.15104Q258.35938 67.041664 257.21875 67.041664Q256.0625 67.041664 255.40625 66.30729L255.40625 69.354164L254.32812 69.354164L254.32812 60.572914L255.3125 60.572914L255.35938 61.27604Q256.03125 60.46354 257.20312 60.46354Q258.34375 60.46354 259.0 61.322914Q259.67188 62.18229 259.67188 63.71354L259.67188 63.822914ZM258.59375 63.697914Q258.59375 62.61979 258.125 62.010414Q257.67188 61.385414 256.875 61.385414Q255.89062 61.385414 255.40625 62.24479L255.40625 65.27604Q255.89062 66.15104 256.89062 66.15104Q257.67188 66.15104 258.125 65.541664Q258.59375 64.916664 258.59375 63.697914ZM265.23438 66.291664Q264.60938 67.041664 263.375 67.041664Q262.35938 67.041664 261.82812 66.447914Q261.29688 65.854164 261.29688 64.697914L261.29688 60.572914L262.375 60.572914L262.375 64.666664Q262.375 66.11979 263.54688 66.11979Q264.79688 66.11979 265.20312 65.18229L265.20312 60.572914L266.29688 60.572914L266.29688 66.916664L265.26562 66.916664L265.23438 66.291664ZM269.79688 59.041664L269.79688 60.572914L270.96875 60.572914L270.96875 61.416664L269.79688 61.416664L269.79688 65.33854Q269.79688 65.729164 269.95312 65.916664Q270.10938 66.104164 270.48438 66.104164Q270.67188 66.104164 271.0 66.041664L271.0 66.916664Q270.57812 67.041664 270.17188 67.041664Q269.45312 67.041664 269.07812 66.604164Q268.70312 66.15104 268.70312 65.33854L268.70312 61.416664L267.54688 61.416664L267.54688 60.572914L268.70312 60.572914L268.70312 59.041664L269.79688 59.041664ZM275.28125 63.447914Q275.28125 62.135414 275.625 60.916664Q275.98438 59.697914 276.6875 58.697914Q277.39062 57.697914 278.15625 57.291664L278.375 58.010414Q277.51562 58.666664 276.96875 60.010414Q276.42188 61.354164 276.375 63.02604L276.35938 63.52604Q276.35938 65.791664 277.1875 67.447914Q277.6875 68.447914 278.375 69.010414L278.15625 69.666664Q277.375 69.24479 276.65625 68.21354Q275.28125 66.229164 275.28125 63.447914ZM280.9375 58.385414L283.73438 65.33854L286.51562 58.385414L287.98438 58.385414L287.98438 66.916664L286.85938 66.916664L286.85938 63.58854L286.96875 60.010414L284.15625 66.916664L283.29688 66.916664L280.5 60.02604L280.60938 63.58854L280.60938 66.916664L279.48438 66.916664L279.48438 58.385414L280.9375 58.385414ZM294.6875 63.822914Q294.6875 65.27604 294.01562 66.166664Q293.35938 67.041664 292.23438 67.041664Q291.03125 67.041664 290.375 66.18229L290.3125 66.916664L289.32812 66.916664L289.32812 57.916664L290.40625 57.916664L290.40625 61.27604Q291.0625 60.46354 292.21875 60.46354Q293.375 60.46354 294.03125 61.33854Q294.6875 62.197914 294.6875 63.729164L294.6875 63.822914ZM293.60938 63.697914Q293.60938 62.58854 293.17188 61.99479Q292.75 61.385414 291.95312 61.385414Q290.875 61.385414 290.40625 62.36979L290.40625 65.11979Q290.90625 66.11979 291.95312 66.11979Q292.73438 66.11979 293.17188 65.510414Q293.60938 64.90104 293.60938 63.697914ZM301.67188 63.822914Q301.67188 65.260414 301.01562 66.15104Q300.35938 67.041664 299.21875 67.041664Q298.0625 67.041664 297.40625 66.30729L297.40625 69.354164L296.32812 69.354164L296.32812 60.572914L297.3125 60.572914L297.35938 61.27604Q298.03125 60.46354 299.20312 60.46354Q300.34375 60.46354 301.0 61.322914Q301.67188 62.18229 301.67188 63.71354L301.67188 63.822914ZM300.59375 63.697914Q300.59375 62.61979 300.125 62.010414Q299.67188 61.385414 298.875 61.385414Q297.89062 61.385414 297.40625 62.24479L297.40625 65.27604Q297.89062 66.15104 298.89062 66.15104Q299.67188 66.15104 300.125 65.541664Q300.59375 64.916664 300.59375 63.697914ZM307.01562 65.229164Q307.01562 64.791664 306.67188 64.55729Q306.34375 64.30729 305.51562 64.135414Q304.70312 63.96354 304.21875 63.71354Q303.73438 63.46354 303.5 63.135414Q303.28125 62.791664 303.28125 62.322914Q303.28125 61.541664 303.9375 61.010414Q304.59375 60.46354 305.625 60.46354Q306.70312 60.46354 307.35938 61.02604Q308.03125 61.572914 308.03125 62.43229L306.95312 62.43229Q306.95312 61.99479 306.5625 61.68229Q306.1875 61.354164 305.625 61.354164Q305.03125 61.354164 304.6875 61.61979Q304.35938 61.86979 304.35938 62.27604Q304.35938 62.666664 304.67188 62.86979Q304.98438 63.072914 305.79688 63.260414Q306.60938 63.43229 307.10938 63.68229Q307.60938 63.93229 307.84375 64.291664Q308.09375 64.65104 308.09375 65.15104Q308.09375 66.010414 307.40625 66.52604Q306.73438 67.041664 305.65625 67.041664Q304.89062 67.041664 304.29688 66.77604Q303.71875 66.49479 303.39062 66.010414Q303.0625 65.52604 303.0625 64.96354L304.14062 64.96354Q304.17188 65.510414 304.57812 65.83854Q304.98438 66.15104 305.65625 66.15104Q306.26562 66.15104 306.64062 65.90104Q307.01562 65.65104 307.01562 65.229164ZM311.82812 63.510414Q311.82812 64.822914 311.48438 66.02604Q311.14062 67.21354 310.42188 68.229164Q309.71875 69.24479 308.95312 69.666664L308.71875 69.010414Q309.625 68.322914 310.17188 66.86979Q310.71875 65.40104 310.73438 63.635414L310.73438 63.447914Q310.73438 62.21354 310.46875 61.15104Q310.21875 60.08854 309.75 59.260414Q309.29688 58.416664 308.71875 57.947914L308.95312 57.291664Q309.71875 57.71354 310.42188 58.71354Q311.125 59.71354 311.46875 60.93229Q311.82812 62.135414 311.82812 63.510414Z" fill-rule="nonzero"/><path stroke="#ea4335" stroke-width="4.0" stroke-linecap="butt" stroke-dasharray="13.0,9.0" d="M328.5 62.416668L363.5 62.416668" fill-rule="nonzero"/><path fill="#000000" d="M375.625 63.46354L373.60938 63.46354L373.60938 66.916664L372.48438 66.916664L372.48438 58.385414L375.3125 58.385414Q376.75 58.385414 377.51562 59.041664Q378.29688 59.697914 378.29688 60.947914Q378.29688 61.74479 377.85938 62.33854Q377.4375 62.93229 376.67188 63.229164L378.67188 66.83854L378.67188 66.916664L377.46875 66.916664L375.625 63.46354ZM373.60938 62.541664L375.34375 62.541664Q376.1875 62.541664 376.67188 62.11979Q377.17188 61.68229 377.17188 60.947914Q377.17188 60.166664 376.70312 59.74479Q376.23438 59.322914 375.34375 59.30729L373.60938 59.30729L373.60938 62.541664ZM381.95312 67.041664Q380.65625 67.041664 379.84375 66.197914Q379.04688 65.33854 379.04688 63.916664L379.04688 63.729164Q379.04688 62.77604 379.40625 62.041664Q379.76562 61.291664 380.40625 60.885414Q381.0625 60.46354 381.8125 60.46354Q383.04688 60.46354 383.73438 61.27604Q384.42188 62.08854 384.42188 63.604164L384.42188 64.05729L380.125 64.05729Q380.15625 64.99479 380.67188 65.572914Q381.20312 66.15104 382.01562 66.15104Q382.57812 66.15104 382.96875 65.916664Q383.375 65.68229 383.6875 65.291664L384.34375 65.80729Q383.54688 67.041664 381.95312 67.041664ZM381.8125 61.354164Q381.15625 61.354164 380.70312 61.83854Q380.26562 62.30729 380.17188 63.166664L383.34375 63.166664L383.34375 63.08854Q383.29688 62.260414 382.89062 61.80729Q382.5 61.354164 381.8125 61.354164ZM387.85938 66.15104Q388.4375 66.15104 388.875 65.80729Q389.3125 65.447914 389.35938 64.916664L390.39062 64.916664Q390.35938 65.46354 390.0 65.96354Q389.65625 66.447914 389.07812 66.74479Q388.51562 67.041664 387.85938 67.041664Q386.5625 67.041664 385.79688 66.18229Q385.04688 65.30729 385.04688 63.80729L385.04688 63.61979Q385.04688 62.697914 385.375 61.979164Q385.71875 61.260414 386.34375 60.86979Q386.98438 60.46354 387.85938 60.46354Q388.92188 60.46354 389.625 61.104164Q390.34375 61.729164 390.39062 62.760414L389.35938 62.760414Q389.3125 62.135414 388.89062 61.74479Q388.46875 61.354164 387.85938 61.354164Q387.03125 61.354164 386.57812 61.947914Q386.125 62.541664 386.125 63.666664L386.125 63.86979Q386.125 64.96354 386.57812 65.55729Q387.03125 66.15104 387.85938 66.15104ZM393.95312 67.041664Q392.65625 67.041664 391.84375 66.197914Q391.04688 65.33854 391.04688 63.916664L391.04688 63.729164Q391.04688 62.77604 391.40625 62.041664Q391.76562 61.291664 392.40625 60.885414Q393.0625 60.46354 393.8125 60.46354Q395.04688 60.46354 395.73438 61.27604Q396.42188 62.08854 396.42188 63.604164L396.42188 64.05729L392.125 64.05729Q392.15625 64.99479 392.67188 65.572914Q393.20312 66.15104 394.01562 66.15104Q394.57812 66.15104 394.96875 65.916664Q395.375 65.68229 395.6875 65.291664L396.34375 65.80729Q395.54688 67.041664 393.95312 67.041664ZM393.8125 61.354164Q393.15625 61.354164 392.70312 61.83854Q392.26562 62.30729 392.17188 63.166664L395.34375 63.166664L395.34375 63.08854Q395.29688 62.260414 394.89062 61.80729Q394.5 61.354164 393.8125 61.354164ZM398.5 66.916664L397.42188 66.916664L397.42188 60.572914L398.5 60.572914L398.5 66.916664ZM397.32812 58.90104Q397.32812 58.635414 397.48438 58.447914Q397.65625 58.260414 397.96875 58.260414Q398.28125 58.260414 398.4375 58.447914Q398.60938 58.635414 398.60938 58.90104Q398.60938 59.15104 398.4375 59.33854Q398.28125 59.510414 397.96875 59.510414Q397.65625 59.510414 397.48438 59.33854Q397.32812 59.15104 397.32812 58.90104ZM402.40625 65.447914L403.98438 60.572914L405.09375 60.572914L402.8125 66.916664L401.98438 66.916664L399.6875 60.572914L400.79688 60.572914L402.40625 65.447914ZM408.95312 67.041664Q407.65625 67.041664 406.84375 66.197914Q406.04688 65.33854 406.04688 63.916664L406.04688 63.729164Q406.04688 62.77604 406.40625 62.041664Q406.76562 61.291664 407.40625 60.885414Q408.0625 60.46354 408.8125 60.46354Q410.04688 60.46354 410.73438 61.27604Q411.42188 62.08854 411.42188 63.604164L411.42188 64.05729L407.125 64.05729Q407.15625 64.99479 407.67188 65.572914Q408.20312 66.15104 409.01562 66.15104Q409.57812 66.15104 409.96875 65.916664Q410.375 65.68229 410.6875 65.291664L411.34375 65.80729Q410.54688 67.041664 408.95312 67.041664ZM408.8125 61.354164Q408.15625 61.354164 407.70312 61.83854Q407.26562 62.30729 407.17188 63.166664L410.34375 63.166664L410.34375 63.08854Q410.29688 62.260414 409.89062 61.80729Q409.5 61.354164 408.8125 61.354164ZM412.0625 63.697914Q412.0625 62.229164 412.75 61.354164Q413.4375 60.46354 414.5625 60.46354Q415.67188 60.46354 416.32812 61.21354L416.32812 57.916664L417.40625 57.916664L417.40625 66.916664L416.40625 66.916664L416.35938 66.229164Q415.70312 67.041664 414.54688 67.041664Q413.45312 67.041664 412.75 66.135414Q412.0625 65.229164 412.0625 63.77604L412.0625 63.697914ZM413.14062 63.822914Q413.14062 64.90104 413.57812 65.510414Q414.03125 66.11979 414.8125 66.11979Q415.84375 66.11979 416.32812 65.18229L416.32812 62.27604Q415.84375 61.385414 414.82812 61.385414Q414.03125 61.385414 413.57812 61.99479Q413.14062 62.604164 413.14062 63.822914ZM424.65625 62.947914L423.60938 64.02604L423.60938 66.916664L422.48438 66.916664L422.48438 58.385414L423.60938 58.385414L423.60938 62.604164L427.40625 58.385414L428.76562 58.385414L425.40625 62.15104L429.03125 66.916664L427.6875 66.916664L424.65625 62.947914ZM431.5 66.916664L430.42188 66.916664L430.42188 60.572914L431.5 60.572914L431.5 66.916664ZM430.32812 58.90104Q430.32812 58.635414 430.48438 58.447914Q430.65625 58.260414 430.96875 58.260414Q431.28125 58.260414 431.4375 58.447914Q431.60938 58.635414 431.60938 58.90104Q431.60938 59.15104 431.4375 59.33854Q431.28125 59.510414 430.96875 59.510414Q430.65625 59.510414 430.48438 59.33854Q430.32812 59.15104 430.32812 58.90104ZM433.48438 66.916664L433.48438 58.385414L436.28125 58.385414Q437.67188 58.385414 438.35938 58.96354Q439.0625 59.52604 439.0625 60.65104Q439.0625 61.260414 438.71875 61.729164Q438.39062 62.18229 437.79688 62.43229Q438.5 62.61979 438.89062 63.166664Q439.29688 63.697914 439.29688 64.447914Q439.29688 65.604164 438.54688 66.260414Q437.8125 66.916664 436.45312 66.916664L433.48438 66.916664ZM434.60938 62.93229L434.60938 65.99479L436.46875 65.99479Q437.26562 65.99479 437.71875 65.58854Q438.17188 65.18229 438.17188 64.46354Q438.17188 62.93229 436.48438 62.93229L434.60938 62.93229ZM434.60938 62.02604L436.3125 62.02604Q437.04688 62.02604 437.48438 61.666664Q437.9375 61.291664 437.9375 60.65104Q437.9375 59.947914 437.53125 59.635414Q437.125 59.30729 436.28125 59.30729L434.60938 59.30729L434.60938 62.02604Z" fill-rule="nonzero"/><path fill="#757575" d="M28.05 33.83125L22.096874 33.83125L20.753124 37.55L18.83125 37.55L24.253124 23.33125L25.89375 23.33125L31.33125 37.55L29.409374 37.55L28.05 33.83125ZM22.659374 32.3L27.503124 32.3L25.08125 25.64375L22.659374 32.3ZM36.409374 35.096874L39.01875 26.9875L40.8625 26.9875L37.08125 37.55L35.70625 37.55L31.878124 26.9875L33.721874 26.9875L36.409374 35.096874ZM47.3 37.753124Q45.159374 37.753124 43.8 36.346874Q42.45625 34.925 42.45625 32.565624L42.45625 32.221874Q42.45625 30.659374 43.05 29.425Q43.659374 28.190624 44.7375 27.4875Q45.815624 26.784374 47.08125 26.784374Q49.14375 26.784374 50.284374 28.14375Q51.425 29.503124 51.425 32.034374L51.425 32.784374L44.26875 32.784374Q44.3 34.346874 45.175 35.315624Q46.05 36.26875 47.39375 36.26875Q48.3625 36.26875 49.01875 35.878124Q49.690624 35.4875 50.190624 34.846874L51.284374 35.70625Q49.95625 37.753124 47.3 37.753124ZM47.08125 28.26875Q45.9875 28.26875 45.2375 29.065624Q44.503124 29.8625 44.33125 31.3L49.6125 31.3L49.6125 31.159374Q49.534374 29.784374 48.8625 29.034374Q48.20625 28.26875 47.08125 28.26875ZM59.01875 28.596874Q58.6125 28.534374 58.14375 28.534374Q56.3625 28.534374 55.721874 30.05L55.721874 37.55L53.925 37.55L53.925 26.9875L55.675 26.9875L55.70625 28.20625Q56.596874 26.784374 58.221874 26.784374Q58.753124 26.784374 59.01875 26.925L59.01875 28.596874ZM67.44063 37.55Q67.28438 37.2375 67.19063 36.440624Q65.925 37.753124 64.175 37.753124Q62.6125 37.753124 61.6125 36.8625Q60.6125 35.971874 60.6125 34.6125Q60.6125 32.971874 61.8625 32.065624Q63.128124 31.14375 65.39375 31.14375L67.15938 31.14375L67.15938 30.315624Q67.15938 29.3625 66.58125 28.8Q66.01875 28.2375 64.925 28.2375Q63.95625 28.2375 63.3 28.7375Q62.64375 29.221874 62.64375 29.909374L60.83125 29.909374Q60.83125 29.128124 61.39375 28.39375Q61.95625 27.64375 62.909374 27.221874Q63.878124 26.784374 65.03438 26.784374Q66.8625 26.784374 67.89375 27.70625Q68.925 28.6125 68.97188 30.221874L68.97188 35.08125Q68.97188 36.534374 69.33125 37.39375L69.33125 37.55L67.44063 37.55ZM64.44063 36.175Q65.3 36.175 66.05 35.7375Q66.81563 35.3 67.15938 34.596874L67.15938 32.425L65.7375 32.425Q62.425 32.425 62.425 34.3625Q62.425 35.221874 62.9875 35.70625Q63.55 36.175 64.44063 36.175ZM71.4875 32.175Q71.4875 29.70625 72.62813 28.253124Q73.76875 26.784374 75.65938 26.784374Q77.59688 26.784374 78.675 28.159374L78.76875 26.9875L80.40938 26.9875L80.40938 37.3Q80.40938 39.346874 79.19063 40.51875Q77.9875 41.70625 75.925 41.70625Q74.78438 41.70625 73.69063 41.221874Q72.59688 40.7375 72.01875 39.878124L72.95625 38.8Q74.12813 40.2375 75.8 40.2375Q77.12813 40.2375 77.8625 39.4875Q78.59688 38.753124 78.59688 37.409374L78.59688 36.4875Q77.51875 37.753124 75.64375 37.753124Q73.78438 37.753124 72.62813 36.253124Q71.4875 34.753124 71.4875 32.175ZM73.3 32.378124Q73.3 34.175 74.03438 35.190624Q74.76875 36.20625 76.08125 36.20625Q77.8 36.20625 78.59688 34.659374L78.59688 29.83125Q77.76875 28.315624 76.1125 28.315624Q74.78438 28.315624 74.03438 29.346874Q73.3 30.378124 73.3 32.378124ZM87.3 37.753124Q85.15938 37.753124 83.8 36.346874Q82.45625 34.925 82.45625 32.565624L82.45625 32.221874Q82.45625 30.659374 83.05 29.425Q83.65938 28.190624 84.7375 27.4875Q85.81563 26.784374 87.08125 26.784374Q89.14375 26.784374 90.28438 28.14375Q91.425 29.503124 91.425 32.034374L91.425 32.784374L84.26875 32.784374Q84.3 34.346874 85.175 35.315624Q86.05 36.26875 87.39375 36.26875Q88.3625 36.26875 89.01875 35.878124Q89.69063 35.4875 90.19063 34.846874L91.28438 35.70625Q89.95625 37.753124 87.3 37.753124ZM87.08125 28.26875Q85.9875 28.26875 85.2375 29.065624Q84.50313 29.8625 84.33125 31.3L89.6125 31.3L89.6125 31.159374Q89.53438 29.784374 88.8625 29.034374Q88.20625 28.26875 87.08125 28.26875ZM109.01875 24.878124L104.45625 24.878124L104.45625 37.55L102.59688 37.55L102.59688 24.878124L98.03438 24.878124L98.03438 23.33125L109.01875 23.33125L109.01875 24.878124ZM112.72188 28.26875Q113.925 26.784374 115.84688 26.784374Q119.20625 26.784374 119.22188 30.565624L119.22188 37.55L117.425 37.55L117.425 30.55Q117.40938 29.409374 116.89375 28.8625Q116.39375 28.315624 115.3 28.315624Q114.425 28.315624 113.75313 28.784374Q113.09688 29.253124 112.72188 30.01875L112.72188 37.55L110.925 37.55L110.925 22.55L112.72188 22.55L112.72188 28.26875ZM127.01875 28.596874Q126.6125 28.534374 126.14375 28.534374Q124.3625 28.534374 123.72188 30.05L123.72188 37.55L121.925 37.55L121.925 26.9875L123.675 26.9875L123.70625 28.20625Q124.59688 26.784374 126.22188 26.784374Q126.75313 26.784374 127.01875 26.925L127.01875 28.596874ZM128.44063 32.175Q128.44063 30.6125 129.05 29.378124Q129.65938 28.128124 130.7375 27.45625Q131.83125 26.784374 133.2375 26.784374Q135.39375 26.784374 136.72188 28.284374Q138.06563 29.76875 138.06563 32.253124L138.06563 32.378124Q138.06563 33.925 137.47188 35.159374Q136.87813 36.378124 135.76875 37.065624Q134.675 37.753124 133.25313 37.753124Q131.1125 37.753124 129.76875 36.253124Q128.44063 34.753124 128.44063 32.3L128.44063 32.175ZM130.25313 32.378124Q130.25313 34.14375 131.06563 35.20625Q131.89375 36.26875 133.25313 36.26875Q134.62813 36.26875 135.44063 35.190624Q136.25313 34.1125 136.25313 32.175Q136.25313 30.425 135.425 29.346874Q134.59688 28.26875 133.2375 28.26875Q131.89375 28.26875 131.06563 29.33125Q130.25313 30.39375 130.25313 32.378124ZM146.44063 36.503124Q145.39375 37.753124 143.34688 37.753124Q141.65938 37.753124 140.76875 36.76875Q139.89375 35.784374 139.87813 33.8625L139.87813 26.9875L141.69063 26.9875L141.69063 33.815624Q141.69063 36.20625 143.64375 36.20625Q145.70625 36.20625 146.39375 34.675L146.39375 26.9875L148.20625 26.9875L148.20625 37.55L146.4875 37.55L146.44063 36.503124ZM150.4875 32.175Q150.4875 29.70625 151.62813 28.253124Q152.76875 26.784374 154.65938 26.784374Q156.59688 26.784374 157.675 28.159374L157.76875 26.9875L159.40938 26.9875L159.40938 37.3Q159.40938 39.346874 158.19063 40.51875Q156.9875 41.70625 154.925 41.70625Q153.78438 41.70625 152.69063 41.221874Q151.59688 40.7375 151.01875 39.878124L151.95625 38.8Q153.12813 40.2375 154.8 40.2375Q156.12813 40.2375 156.8625 39.4875Q157.59688 38.753124 157.59688 37.409374L157.59688 36.4875Q156.51875 37.753124 154.64375 37.753124Q152.78438 37.753124 151.62813 36.253124Q150.4875 34.753124 150.4875 32.175ZM152.3 32.378124Q152.3 34.175 153.03438 35.190624Q153.76875 36.20625 155.08125 36.20625Q156.8 36.20625 157.59688 34.659374L157.59688 29.83125Q156.76875 28.315624 155.1125 28.315624Q153.78438 28.315624 153.03438 29.346874Q152.3 30.378124 152.3 32.378124ZM163.72188 28.26875Q164.925 26.784374 166.84688 26.784374Q170.20625 26.784374 170.22188 30.565624L170.22188 37.55L168.425 37.55L168.425 30.55Q168.40938 29.409374 167.89375 28.8625Q167.39375 28.315624 166.3 28.315624Q165.425 28.315624 164.75313 28.784374Q164.09688 29.253124 163.72188 30.01875L163.72188 37.55L161.925 37.55L161.925 22.55L163.72188 22.55L163.72188 28.26875ZM181.84688 32.378124Q181.84688 34.8 180.7375 36.284374Q179.64375 37.753124 177.75313 37.753124Q175.83125 37.753124 174.72188 36.51875L174.72188 41.6125L172.925 41.6125L172.925 26.9875L174.56563 26.9875L174.65938 28.159374Q175.75313 26.784374 177.72188 26.784374Q179.62813 26.784374 180.7375 28.221874Q181.84688 29.659374 181.84688 32.221874L181.84688 32.378124ZM180.03438 32.175Q180.03438 30.39375 179.26875 29.3625Q178.51875 28.315624 177.19063 28.315624Q175.55 28.315624 174.72188 29.76875L174.72188 34.83125Q175.53438 36.26875 177.20625 36.26875Q178.50313 36.26875 179.26875 35.2375Q180.03438 34.20625 180.03438 32.175ZM190.44063 36.503124Q189.39375 37.753124 187.34688 37.753124Q185.65938 37.753124 184.76875 36.76875Q183.89375 35.784374 183.87813 33.8625L183.87813 26.9875L185.69063 26.9875L185.69063 33.815624Q185.69063 36.20625 187.64375 36.20625Q189.70625 36.20625 190.39375 34.675L190.39375 26.9875L192.20625 26.9875L192.20625 37.55L190.4875 37.55L190.44063 36.503124ZM197.3625 24.425L197.3625 26.9875L199.34688 26.9875L199.34688 28.378124L197.3625 28.378124L197.3625 34.925Q197.3625 35.565624 197.62813 35.89375Q197.89375 36.20625 198.53438 36.20625Q198.84688 36.20625 199.39375 36.08125L199.39375 37.55Q198.675 37.753124 198.00313 37.753124Q196.8 37.753124 196.175 37.01875Q195.56563 36.284374 195.56563 34.925L195.56563 28.378124L193.64375 28.378124L193.64375 26.9875L195.56563 26.9875L195.56563 24.425L197.3625 24.425ZM206.84688 31.784374Q206.84688 29.565624 207.44063 27.534374Q208.03438 25.503124 209.20625 23.846874Q210.37813 22.190624 211.62813 21.503124L212.00313 22.690624Q210.58125 23.784374 209.65938 26.034374Q208.75313 28.284374 208.65938 31.065624L208.65938 31.89375Q208.65938 35.659374 210.03438 38.440624Q210.8625 40.096874 212.00313 41.034374L211.62813 42.14375Q210.33125 41.425 209.15938 39.721874Q206.84688 36.39375 206.84688 31.784374ZM216.62813 23.33125L221.26875 34.925L225.925 23.33125L228.34688 23.33125L228.34688 37.55L226.47188 37.55L226.47188 32.01875L226.65938 26.034374L221.9875 37.55L220.55 37.55L215.89375 26.065624L216.08125 32.01875L216.08125 37.55L214.20625 37.55L214.20625 23.33125L216.62813 23.33125ZM239.8625 32.378124Q239.8625 34.8 238.75313 36.284374Q237.64375 37.753124 235.76875 37.753124Q233.75313 37.753124 232.65938 36.33125L232.58125 37.55L230.925 37.55L230.925 22.55L232.72188 22.55L232.72188 28.14375Q233.81563 26.784374 235.7375 26.784374Q237.65938 26.784374 238.75313 28.2375Q239.8625 29.690624 239.8625 32.221874L239.8625 32.378124ZM238.05 32.175Q238.05 30.33125 237.33125 29.33125Q236.62813 28.315624 235.3 28.315624Q233.50313 28.315624 232.72188 29.9875L232.72188 34.55Q233.55 36.20625 235.31563 36.20625Q236.6125 36.20625 237.33125 35.20625Q238.05 34.20625 238.05 32.175ZM250.84688 32.378124Q250.84688 34.8 249.7375 36.284374Q248.64375 37.753124 246.75313 37.753124Q244.83125 37.753124 243.72188 36.51875L243.72188 41.6125L241.925 41.6125L241.925 26.9875L243.56563 26.9875L243.65938 28.159374Q244.75313 26.784374 246.72188 26.784374Q248.62813 26.784374 249.7375 28.221874Q250.84688 29.659374 250.84688 32.221874L250.84688 32.378124ZM249.03438 32.175Q249.03438 30.39375 248.26875 29.3625Q247.51875 28.315624 246.19063 28.315624Q244.55 28.315624 243.72188 29.76875L243.72188 34.83125Q244.53438 36.26875 246.20625 36.26875Q247.50313 36.26875 248.26875 35.2375Q249.03438 34.20625 249.03438 32.175ZM259.0656 34.753124Q259.0656 34.01875 258.51874 33.6125Q257.97186 33.20625 256.59686 32.909374Q255.22188 32.6125 254.40938 32.20625Q253.6125 31.8 253.22188 31.2375Q252.84688 30.659374 252.84688 29.878124Q252.84688 28.58125 253.94063 27.690624Q255.03438 26.784374 256.7531 26.784374Q258.55 26.784374 259.65936 27.721874Q260.78436 28.64375 260.78436 30.08125L258.95624 30.08125Q258.95624 29.346874 258.33124 28.815624Q257.70624 28.26875 256.7531 28.26875Q255.75313 28.26875 255.19063 28.70625Q254.64375 29.128124 254.64375 29.83125Q254.64375 30.471874 255.15938 30.815624Q255.675 31.14375 257.03436 31.45625Q258.39374 31.753124 259.22186 32.175Q260.0656 32.58125 260.47186 33.175Q260.8781 33.76875 260.8781 34.6125Q260.8781 36.034374 259.7375 36.89375Q258.6125 37.753124 256.8 37.753124Q255.53438 37.753124 254.55 37.3Q253.58125 36.846874 253.01875 36.05Q252.47188 35.2375 252.47188 34.3L254.28438 34.3Q254.33125 35.20625 255.00313 35.7375Q255.69063 36.26875 256.8 36.26875Q257.83124 36.26875 258.4406 35.8625Q259.0656 35.440624 259.0656 34.753124ZM267.08124 31.878124Q267.08124 34.05 266.5031 36.05Q265.9406 38.05 264.76874 39.7375Q263.59686 41.425 262.3 42.14375L261.925 41.034374Q263.425 39.878124 264.33124 37.45625Q265.2531 35.034374 265.26874 32.065624L265.26874 31.753124Q265.26874 29.70625 264.83124 27.940624Q264.40936 26.175 263.64374 24.784374Q262.8781 23.39375 261.925 22.6125L262.3 21.503124Q263.59686 22.221874 264.7531 23.89375Q265.925 25.55 266.5031 27.565624Q267.08124 29.58125 267.08124 31.878124ZM278.40936 35.096874L281.01874 26.9875L282.8625 26.9875L279.08124 37.55L277.70624 37.55L273.8781 26.9875L275.72186 26.9875L278.40936 35.096874ZM291.0656 34.753124Q291.0656 34.01875 290.51874 33.6125Q289.97186 33.20625 288.59686 32.909374Q287.22186 32.6125 286.40936 32.20625Q285.6125 31.8 285.22186 31.2375Q284.84686 30.659374 284.84686 29.878124Q284.84686 28.58125 285.9406 27.690624Q287.03436 26.784374 288.7531 26.784374Q290.55 26.784374 291.65936 27.721874Q292.78436 28.64375 292.78436 30.08125L290.95624 30.08125Q290.95624 29.346874 290.33124 28.815624Q289.70624 28.26875 288.7531 28.26875Q287.7531 28.26875 287.1906 28.70625Q286.64374 29.128124 286.64374 29.83125Q286.64374 30.471874 287.15936 30.815624Q287.675 31.14375 289.03436 31.45625Q290.39374 31.753124 291.22186 32.175Q292.0656 32.58125 292.47186 33.175Q292.8781 33.76875 292.8781 34.6125Q292.8781 36.034374 291.7375 36.89375Q290.6125 37.753124 288.8 37.753124Q287.53436 37.753124 286.55 37.3Q285.58124 36.846874 285.01874 36.05Q284.47186 35.2375 284.47186 34.3L286.28436 34.3Q286.33124 35.20625 287.0031 35.7375Q287.6906 36.26875 288.8 36.26875Q289.83124 36.26875 290.4406 35.8625Q291.0656 35.440624 291.0656 34.753124ZM302.6281 23.33125L307.26874 34.925L311.925 23.33125L314.34686 23.33125L314.34686 37.55L312.47186 37.55L312.47186 32.01875L312.65936 26.034374L307.9875 37.55L306.55 37.55L301.89374 26.065624L302.08124 32.01875L302.08124 37.55L300.20624 37.55L300.20624 23.33125L302.6281 23.33125ZM321.3 37.753124Q319.15936 37.753124 317.8 36.346874Q316.45624 34.925 316.45624 32.565624L316.45624 32.221874Q316.45624 30.659374 317.05 29.425Q317.65936 28.190624 318.7375 27.4875Q319.8156 26.784374 321.08124 26.784374Q323.14374 26.784374 324.28436 28.14375Q325.425 29.503124 325.425 32.034374L325.425 32.784374L318.26874 32.784374Q318.3 34.346874 319.175 35.315624Q320.05 36.26875 321.39374 36.26875Q322.3625 36.26875 323.01874 35.878124Q323.6906 35.4875 324.1906 34.846874L325.28436 35.70625Q323.95624 37.753124 321.3 37.753124ZM321.08124 28.26875Q319.9875 28.26875 319.2375 29.065624Q318.5031 29.8625 318.33124 31.3L323.6125 31.3L323.6125 31.159374Q323.53436 29.784374 322.8625 29.034374Q322.20624 28.26875 321.08124 28.26875ZM334.0656 34.753124Q334.0656 34.01875 333.51874 33.6125Q332.97186 33.20625 331.59686 32.909374Q330.22186 32.6125 329.40936 32.20625Q328.6125 31.8 328.22186 31.2375Q327.84686 30.659374 327.84686 29.878124Q327.84686 28.58125 328.9406 27.690624Q330.03436 26.784374 331.7531 26.784374Q333.55 26.784374 334.65936 27.721874Q335.78436 28.64375 335.78436 30.08125L333.95624 30.08125Q333.95624 29.346874 333.33124 28.815624Q332.70624 28.26875 331.7531 28.26875Q330.7531 28.26875 330.1906 28.70625Q329.64374 29.128124 329.64374 29.83125Q329.64374 30.471874 330.15936 30.815624Q330.675 31.14375 332.03436 31.45625Q333.39374 31.753124 334.22186 32.175Q335.0656 32.58125 335.47186 33.175Q335.8781 33.76875 335.8781 34.6125Q335.8781 36.034374 334.7375 36.89375Q333.6125 37.753124 331.8 37.753124Q330.53436 37.753124 329.55 37.3Q328.58124 36.846874 328.01874 36.05Q327.47186 35.2375 327.47186 34.3L329.28436 34.3Q329.33124 35.20625 330.0031 35.7375Q330.6906 36.26875 331.8 36.26875Q332.83124 36.26875 333.4406 35.8625Q334.0656 35.440624 334.0656 34.753124ZM344.0656 34.753124Q344.0656 34.01875 343.51874 33.6125Q342.97186 33.20625 341.59686 32.909374Q340.22186 32.6125 339.40936 32.20625Q338.6125 31.8 338.22186 31.2375Q337.84686 30.659374 337.84686 29.878124Q337.84686 28.58125 338.9406 27.690624Q340.03436 26.784374 341.7531 26.784374Q343.55 26.784374 344.65936 27.721874Q345.78436 28.64375 345.78436 30.08125L343.95624 30.08125Q343.95624 29.346874 343.33124 28.815624Q342.70624 28.26875 341.7531 28.26875Q340.7531 28.26875 340.1906 28.70625Q339.64374 29.128124 339.64374 29.83125Q339.64374 30.471874 340.15936 30.815624Q340.675 31.14375 342.03436 31.45625Q343.39374 31.753124 344.22186 32.175Q345.0656 32.58125 345.47186 33.175Q345.8781 33.76875 345.8781 34.6125Q345.8781 36.034374 344.7375 36.89375Q343.6125 37.753124 341.8 37.753124Q340.53436 37.753124 339.55 37.3Q338.58124 36.846874 338.01874 36.05Q337.47186 35.2375 337.47186 34.3L339.28436 34.3Q339.33124 35.20625 340.0031 35.7375Q340.6906 36.26875 341.8 36.26875Q342.83124 36.26875 343.4406 35.8625Q344.0656 35.440624 344.0656 34.753124ZM354.4406 37.55Q354.28436 37.2375 354.1906 36.440624Q352.925 37.753124 351.175 37.753124Q349.6125 37.753124 348.6125 36.8625Q347.6125 35.971874 347.6125 34.6125Q347.6125 32.971874 348.8625 32.065624Q350.1281 31.14375 352.39374 31.14375L354.15936 31.14375L354.15936 30.315624Q354.15936 29.3625 353.58124 28.8Q353.01874 28.2375 351.925 28.2375Q350.95624 28.2375 350.3 28.7375Q349.64374 29.221874 349.64374 29.909374L347.83124 29.909374Q347.83124 29.128124 348.39374 28.39375Q348.95624 27.64375 349.90936 27.221874Q350.8781 26.784374 352.03436 26.784374Q353.8625 26.784374 354.89374 27.70625Q355.925 28.6125 355.97186 30.221874L355.97186 35.08125Q355.97186 36.534374 356.33124 37.39375L356.33124 37.55L354.4406 37.55ZM351.4406 36.175Q352.3 36.175 353.05 35.7375Q353.8156 35.3 354.15936 34.596874L354.15936 32.425L352.7375 32.425Q349.425 32.425 349.425 34.3625Q349.425 35.221874 349.9875 35.70625Q350.55 36.175 351.4406 36.175ZM358.4875 32.175Q358.4875 29.70625 359.6281 28.253124Q360.76874 26.784374 362.65936 26.784374Q364.59686 26.784374 365.675 28.159374L365.76874 26.9875L367.40936 26.9875L367.40936 37.3Q367.40936 39.346874 366.1906 40.51875Q364.9875 41.70625 362.925 41.70625Q361.78436 41.70625 360.6906 41.221874Q359.59686 40.7375 359.01874 39.878124L359.95624 38.8Q361.1281 40.2375 362.8 40.2375Q364.1281 40.2375 364.8625 39.4875Q365.59686 38.753124 365.59686 37.409374L365.59686 36.4875Q364.51874 37.753124 362.64374 37.753124Q360.78436 37.753124 359.6281 36.253124Q358.4875 34.753124 358.4875 32.175ZM360.3 32.378124Q360.3 34.175 361.03436 35.190624Q361.76874 36.20625 363.08124 36.20625Q364.8 36.20625 365.59686 34.659374L365.59686 29.83125Q364.76874 28.315624 363.1125 28.315624Q361.78436 28.315624 361.03436 29.346874Q360.3 30.378124 360.3 32.378124ZM374.3 37.753124Q372.15936 37.753124 370.8 36.346874Q369.45624 34.925 369.45624 32.565624L369.45624 32.221874Q369.45624 30.659374 370.05 29.425Q370.65936 28.190624 371.7375 27.4875Q372.8156 26.784374 374.08124 26.784374Q376.14374 26.784374 377.28436 28.14375Q378.425 29.503124 378.425 32.034374L378.425 32.784374L371.26874 32.784374Q371.3 34.346874 372.175 35.315624Q373.05 36.26875 374.39374 36.26875Q375.3625 36.26875 376.01874 35.878124Q376.6906 35.4875 377.1906 34.846874L378.28436 35.70625Q376.95624 37.753124 374.3 37.753124ZM374.08124 28.26875Q372.9875 28.26875 372.2375 29.065624Q371.5031 29.8625 371.33124 31.3L376.6125 31.3L376.6125 31.159374Q376.53436 29.784374 375.8625 29.034374Q375.20624 28.26875 374.08124 28.26875ZM387.0656 34.753124Q387.0656 34.01875 386.51874 33.6125Q385.97186 33.20625 384.59686 32.909374Q383.22186 32.6125 382.40936 32.20625Q381.6125 31.8 381.22186 31.2375Q380.84686 30.659374 380.84686 29.878124Q380.84686 28.58125 381.9406 27.690624Q383.03436 26.784374 384.7531 26.784374Q386.55 26.784374 387.65936 27.721874Q388.78436 28.64375 388.78436 30.08125L386.95624 30.08125Q386.95624 29.346874 386.33124 28.815624Q385.70624 28.26875 384.7531 28.26875Q383.7531 28.26875 383.1906 28.70625Q382.64374 29.128124 382.64374 29.83125Q382.64374 30.471874 383.15936 30.815624Q383.675 31.14375 385.03436 31.45625Q386.39374 31.753124 387.22186 32.175Q388.0656 32.58125 388.47186 33.175Q388.8781 33.76875 388.8781 34.6125Q388.8781 36.034374 387.7375 36.89375Q386.6125 37.753124 384.8 37.753124Q383.53436 37.753124 382.55 37.3Q381.58124 36.846874 381.01874 36.05Q380.47186 35.2375 380.47186 34.3L382.28436 34.3Q382.33124 35.20625 383.0031 35.7375Q383.6906 36.26875 384.8 36.26875Q385.83124 36.26875 386.4406 35.8625Q387.0656 35.440624 387.0656 34.753124ZM404.84686 32.378124Q404.84686 34.8 403.7375 36.284374Q402.64374 37.753124 400.7531 37.753124Q398.83124 37.753124 397.72186 36.51875L397.72186 41.6125L395.925 41.6125L395.925 26.9875L397.5656 26.9875L397.65936 28.159374Q398.7531 26.784374 400.72186 26.784374Q402.6281 26.784374 403.7375 28.221874Q404.84686 29.659374 404.84686 32.221874L404.84686 32.378124ZM403.03436 32.175Q403.03436 30.39375 402.26874 29.3625Q401.51874 28.315624 400.1906 28.315624Q398.55 28.315624 397.72186 29.76875L397.72186 34.83125Q398.53436 36.26875 400.20624 36.26875Q401.5031 36.26875 402.26874 35.2375Q403.03436 34.20625 403.03436 32.175ZM411.3 37.753124Q409.15936 37.753124 407.8 36.346874Q406.45624 34.925 406.45624 32.565624L406.45624 32.221874Q406.45624 30.659374 407.05 29.425Q407.65936 28.190624 408.7375 27.4875Q409.8156 26.784374 411.08124 26.784374Q413.14374 26.784374 414.28436 28.14375Q415.425 29.503124 415.425 32.034374L415.425 32.784374L408.26874 32.784374Q408.3 34.346874 409.175 35.315624Q410.05 36.26875 411.39374 36.26875Q412.3625 36.26875 413.01874 35.878124Q413.6906 35.4875 414.1906 34.846874L415.28436 35.70625Q413.95624 37.753124 411.3 37.753124ZM411.08124 28.26875Q409.9875 28.26875 409.2375 29.065624Q408.5031 29.8625 408.33124 31.3L413.6125 31.3L413.6125 31.159374Q413.53436 29.784374 412.8625 29.034374Q412.20624 28.26875 411.08124 28.26875ZM423.01874 28.596874Q422.6125 28.534374 422.14374 28.534374Q420.3625 28.534374 419.72186 30.05L419.72186 37.55L417.925 37.55L417.925 26.9875L419.675 26.9875L419.70624 28.20625Q420.59686 26.784374 422.22186 26.784374Q422.7531 26.784374 423.01874 26.925L423.01874 28.596874ZM440.65936 33.034374Q440.39374 35.3 438.9875 36.534374Q437.59686 37.753124 435.26874 37.753124Q432.7531 37.753124 431.22186 35.940624Q429.70624 34.128124 429.70624 31.096874L429.70624 29.7375Q429.70624 27.753124 430.40936 26.253124Q431.1281 24.753124 432.425 23.940624Q433.72186 23.128124 435.4406 23.128124Q437.70624 23.128124 439.0656 24.39375Q440.4406 25.659374 440.65936 27.89375L438.76874 27.89375Q438.53436 26.20625 437.70624 25.440624Q436.89374 24.675 435.4406 24.675Q433.64374 24.675 432.6125 26.003124Q431.59686 27.33125 431.59686 29.784374L431.59686 31.159374Q431.59686 33.471874 432.5656 34.846874Q433.53436 36.20625 435.26874 36.20625Q436.83124 36.20625 437.65936 35.503124Q438.5031 34.8 438.76874 33.034374L440.65936 33.034374ZM449.4406 37.55Q449.28436 37.2375 449.1906 36.440624Q447.925 37.753124 446.175 37.753124Q444.6125 37.753124 443.6125 36.8625Q442.6125 35.971874 442.6125 34.6125Q442.6125 32.971874 443.8625 32.065624Q445.1281 31.14375 447.39374 31.14375L449.15936 31.14375L449.15936 30.315624Q449.15936 29.3625 448.58124 28.8Q448.01874 28.2375 446.925 28.2375Q445.95624 28.2375 445.3 28.7375Q444.64374 29.221874 444.64374 29.909374L442.83124 29.909374Q442.83124 29.128124 443.39374 28.39375Q443.95624 27.64375 444.90936 27.221874Q445.8781 26.784374 447.03436 26.784374Q448.8625 26.784374 449.89374 27.70625Q450.925 28.6125 450.97186 30.221874L450.97186 35.08125Q450.97186 36.534374 451.33124 37.39375L451.33124 37.55L449.4406 37.55ZM446.4406 36.175Q447.3 36.175 448.05 35.7375Q448.8156 35.3 449.15936 34.596874L449.15936 32.425L447.7375 32.425Q444.425 32.425 444.425 34.3625Q444.425 35.221874 444.9875 35.70625Q445.55 36.175 446.4406 36.175ZM455.8781 37.55L454.08124 37.55L454.08124 22.55L455.8781 22.55L455.8781 37.55ZM460.8781 37.55L459.08124 37.55L459.08124 22.55L460.8781 22.55L460.8781 37.55Z" fill-rule="nonzero"/></svg>